<svg xmlns="http://www.w3.org/2000/svg" width="1024" height="1024" viewBox="0 0 1024 1024">
<g>
<path d="M 279.32 549.77 C276.70,551.24 275.32,551.33 274.54,550.07 C274.22,549.55 274.02,492.29 274.09,422.82 C274.16,353.34 273.89,292.36 273.49,287.30 C272.86,279.49 272.99,277.86 274.38,276.48 C276.24,274.62 276.39,273.14 275.06,269.67 C274.29,267.63 274.46,267.11 276.03,266.70 C277.08,266.43 278.69,264.47 279.61,262.35 C283.44,253.55 284.62,251.36 287.00,248.58 C292.52,242.13 299.75,235.25 304.25,232.16 C306.86,230.37 309.00,228.47 309.00,227.93 C309.00,227.40 310.11,226.45 311.47,225.83 C312.83,225.21 313.70,224.33 313.42,223.87 C313.13,223.40 313.59,223.29 314.45,223.62 C315.30,223.95 316.00,223.69 316.00,223.05 C316.00,222.37 316.52,222.21 317.25,222.65 C318.81,223.62 323.87,223.13 326.41,221.78 C327.45,221.22 331.95,220.65 336.41,220.50 C345.46,220.21 679.64,219.96 682.00,220.24 C682.83,220.34 685.58,220.06 688.11,219.62 C692.00,218.94 693.58,219.21 698.11,221.32 C701.08,222.70 705.49,224.09 707.92,224.41 C713.02,225.08 716.59,227.12 717.46,229.87 C717.79,230.92 719.51,232.37 721.28,233.09 C723.05,233.81 725.09,235.21 725.81,236.20 C726.53,237.19 727.76,238.00 728.55,238.00 C730.68,238.00 735.00,242.10 735.00,244.11 C735.00,246.54 739.06,252.60 741.64,254.03 C743.37,254.99 743.70,255.91 743.34,258.86 C742.91,262.43 743.24,263.19 748.22,270.15 C749.16,271.47 749.91,273.89 749.87,275.52 C749.84,277.16 749.72,336.33 749.62,407.00 C749.52,477.67 749.34,538.10 749.22,541.27 C748.98,547.53 748.32,548.20 741.24,549.31 C738.59,549.73 737.72,549.24 734.84,545.65 L 731.50 541.50 L 731.24 444.00 C731.10,390.38 730.81,345.15 730.61,343.50 C730.40,341.85 730.18,340.16 730.11,339.73 C730.05,339.31 728.44,338.23 726.54,337.32 C724.64,336.41 723.30,335.33 723.56,334.90 C723.82,334.48 723.56,333.84 722.98,333.48 C722.39,333.13 722.20,331.93 722.55,330.84 C723.04,329.31 722.76,328.89 721.34,329.04 C718.14,329.37 717.37,329.07 713.51,326.01 C710.63,323.72 709.15,323.18 707.15,323.68 C705.71,324.04 704.08,324.26 703.52,324.18 C700.16,323.66 667.86,323.81 667.32,324.35 C666.41,325.26 653.22,325.17 652.65,324.25 C652.08,323.32 550.28,323.39 549.34,324.32 C548.97,324.70 547.62,325.00 546.33,325.00 C545.05,325.00 544.00,325.45 544.00,326.00 C544.00,326.55 542.76,327.00 541.25,326.99 C539.38,326.98 537.72,326.00 536.07,323.91 C533.98,321.26 533.21,320.93 530.34,321.46 C524.91,322.48 522.94,320.74 523.14,315.11 C523.33,309.56 522.72,308.22 519.40,306.96 C518.07,306.46 516.26,304.51 515.36,302.63 C513.21,298.11 511.23,298.58 507.61,304.47 C504.45,309.62 503.79,314.62 506.08,316.07 C507.27,316.82 507.27,316.97 506.11,316.98 C505.35,316.99 503.63,318.19 502.28,319.64 C500.03,322.07 498.86,322.51 493.69,322.87 C492.70,322.94 492.15,323.43 492.47,323.95 C492.82,324.52 489.67,324.90 484.56,324.90 C479.88,324.90 475.79,324.47 475.47,323.95 C475.15,323.43 473.90,323.03 472.69,323.07 C470.58,323.14 470.57,323.17 472.50,324.00 C473.71,324.52 470.74,324.67 465.00,324.39 C459.77,324.14 453.48,323.83 451.00,323.71 C448.52,323.60 440.81,323.85 433.85,324.29 C426.14,324.77 421.06,324.71 420.85,324.14 C420.31,322.70 357.78,322.63 324.50,324.03 C323.95,324.05 321.48,323.79 319.00,323.44 C314.93,322.86 314.16,323.10 311.00,325.91 C309.08,327.63 306.74,328.85 305.81,328.63 C303.70,328.12 300.00,330.63 300.00,332.58 C300.00,333.41 298.71,334.31 297.03,334.64 C295.36,334.98 293.80,336.06 293.46,337.11 C292.39,340.50 291.38,397.05 292.00,418.50 C292.63,439.73 292.61,453.68 291.89,506.79 C291.58,530.19 291.76,536.24 292.81,536.88 C293.68,537.42 294.02,539.34 293.81,542.60 L 293.50 547.50 L 287.50 548.02 C284.20,548.31 280.52,549.10 279.32,549.77 ZM 528.86 778.22 C527.73,780.06 502.39,780.17 500.87,778.34 C500.12,777.44 497.90,777.02 494.48,777.13 C490.69,777.25 488.43,776.75 486.37,775.34 C484.79,774.26 481.48,772.79 479.00,772.08 C476.52,771.37 473.47,770.39 472.20,769.90 C470.94,769.40 469.14,769.00 468.20,769.00 C467.27,769.00 464.70,768.15 462.50,767.11 C454.94,763.54 446.11,761.47 435.00,760.68 C433.62,760.58 431.38,759.45 430.00,758.17 C426.84,755.23 424.71,754.38 418.48,753.60 C413.58,752.98 409.80,751.73 401.13,747.86 C396.25,745.68 390.57,744.55 384.38,744.52 C381.78,744.51 380.41,744.09 380.68,743.39 C381.19,742.07 377.33,740.44 370.50,739.10 C362.91,737.60 354.90,735.38 350.94,733.67 C348.99,732.83 345.61,731.99 343.44,731.82 C341.27,731.64 338.83,730.78 338.00,729.89 C336.58,728.37 332.69,726.61 330.50,726.49 C328.18,726.36 319.91,723.66 319.42,722.86 C319.12,722.39 317.57,722.00 315.97,722.00 C311.97,722.00 306.00,718.99 306.00,716.97 C306.00,716.06 305.05,714.45 303.90,713.41 C300.48,710.32 299.00,706.45 299.00,700.63 C299.00,694.58 298.26,691.72 296.90,692.56 C296.40,692.87 296.00,691.74 296.00,690.06 C296.00,688.38 296.37,687.00 296.83,687.00 C297.29,687.00 298.25,685.91 298.96,684.57 C299.78,683.03 301.04,682.21 302.39,682.32 C305.03,682.54 311.25,688.90 310.57,690.69 C310.29,691.41 310.61,692.07 311.28,692.15 C314.82,692.59 315.58,692.59 316.50,692.09 C317.05,691.80 318.05,691.47 318.72,691.37 C325.58,690.33 328.21,690.13 326.74,690.77 C325.25,691.41 325.65,691.97 329.19,694.27 C332.40,696.35 334.63,697.00 338.58,697.00 C341.96,697.00 344.19,697.52 345.00,698.50 C345.68,699.33 347.17,700.00 348.30,700.00 C351.23,700.00 356.57,701.81 363.50,705.15 C366.80,706.74 370.85,708.10 372.50,708.18 C375.40,708.32 381.33,709.67 389.37,712.02 C391.49,712.65 394.42,712.88 395.87,712.55 C397.55,712.16 398.02,712.26 397.18,712.82 C396.21,713.47 396.77,714.14 399.33,715.35 C401.24,716.26 403.63,717.00 404.65,717.00 C405.67,717.00 408.75,717.86 411.50,718.90 C414.25,719.95 416.95,720.90 417.50,721.03 C419.02,721.37 421.02,722.04 426.50,724.03 C434.00,726.75 445.86,729.17 448.32,728.48 C449.80,728.07 450.08,728.16 449.19,728.78 C445.89,731.08 461.73,736.04 467.35,734.47 C468.83,734.05 469.09,734.15 468.17,734.79 C467.19,735.47 467.68,735.89 469.99,736.35 C471.72,736.69 472.88,737.38 472.57,737.88 C471.85,739.05 474.35,740.00 478.14,740.00 C479.78,740.00 483.00,741.05 485.31,742.33 C491.39,745.72 492.80,746.02 514.80,748.63 C519.28,749.16 520.44,748.94 522.30,747.21 C524.22,745.44 529.78,743.98 536.50,743.51 C537.60,743.43 539.70,743.29 541.17,743.18 C542.64,743.08 545.12,741.76 546.67,740.25 C548.39,738.58 550.88,737.36 553.00,737.15 C554.92,736.96 557.26,736.40 558.20,735.89 C559.14,735.39 561.93,734.79 564.41,734.56 C569.06,734.12 576.28,731.27 575.59,730.14 C575.38,729.79 577.14,729.45 579.50,729.38 C581.86,729.32 584.83,728.53 586.12,727.63 C587.40,726.73 589.69,726.00 591.22,726.00 C592.75,726.00 594.91,725.09 596.02,723.98 C597.60,722.40 598.47,722.18 599.96,722.98 C603.09,724.66 605.41,724.16 608.03,721.25 C610.05,719.00 611.51,718.44 616.00,718.16 C621.21,717.83 624.45,716.54 623.58,715.14 C623.37,714.79 625.46,714.42 628.23,714.31 C631.00,714.21 635.79,713.15 638.88,711.96 C641.97,710.77 645.73,709.34 647.24,708.78 C648.74,708.22 649.80,707.48 649.59,707.13 C649.38,706.79 651.98,706.40 655.35,706.27 C661.57,706.04 669.00,703.54 669.00,701.68 C669.00,701.12 669.26,700.93 669.58,701.25 C669.90,701.57 671.69,701.19 673.55,700.41 C675.41,699.64 678.07,699.00 679.45,699.00 C681.59,699.00 692.50,694.50 694.00,693.00 C694.65,692.35 698.26,691.98 704.70,691.92 C708.84,691.88 710.61,691.29 713.42,689.07 C715.35,687.53 716.63,685.96 716.25,685.58 C715.87,685.20 716.33,685.19 717.28,685.55 C718.35,685.97 719.00,685.73 719.00,684.94 C719.00,684.24 719.27,683.94 719.60,684.27 C719.93,684.60 721.24,684.48 722.50,684.00 C724.25,683.34 725.21,683.58 726.51,685.01 C728.78,687.52 728.89,694.25 726.69,696.45 C724.63,698.52 724.61,698.76 726.50,700.64 C728.97,703.11 728.24,705.32 723.50,709.78 C721.03,712.11 718.98,714.58 718.96,715.26 C718.90,717.34 710.81,722.30 707.63,722.21 C706.01,722.16 702.40,723.00 699.60,724.06 C696.79,725.13 693.23,726.00 691.68,726.00 C690.13,726.00 686.98,727.08 684.68,728.41 C682.38,729.73 677.58,731.60 674.00,732.56 C670.42,733.52 666.73,734.97 665.79,735.77 C664.85,736.58 662.23,737.33 659.96,737.44 C657.69,737.55 655.53,738.14 655.15,738.76 C654.77,739.38 653.04,739.84 651.31,739.79 C649.58,739.74 646.22,740.59 643.83,741.68 C641.45,742.77 636.80,744.25 633.50,744.97 C630.20,745.69 626.80,747.06 625.93,748.02 C625.03,749.03 623.28,749.65 621.77,749.48 C620.35,749.32 617.90,749.88 616.34,750.72 C614.78,751.56 612.15,752.59 610.50,753.03 C608.85,753.46 605.25,754.72 602.50,755.83 C597.06,758.02 591.12,759.75 586.65,760.46 C585.08,760.70 582.83,761.53 581.65,762.29 C579.16,763.90 574.86,765.15 570.30,765.60 C568.53,765.77 565.19,766.83 562.86,767.95 C560.53,769.08 558.02,770.00 557.28,770.00 C556.54,770.00 554.85,770.70 553.54,771.57 C552.23,772.43 549.09,773.30 546.58,773.50 C544.07,773.71 541.59,774.13 541.08,774.45 C540.57,774.76 537.78,775.47 534.88,776.02 C531.98,776.57 529.27,777.56 528.86,778.22 ZM 525.24 671.97 C522.39,676.09 521.41,676.74 520.81,674.92 C520.41,673.73 504.65,673.48 502.79,674.63 C502.13,675.04 501.97,674.85 502.40,674.15 C502.84,673.44 502.42,673.00 501.28,673.00 C500.27,673.00 498.56,672.41 497.47,671.68 C493.35,668.93 486.32,667.06 480.50,667.16 C471.55,667.33 471.09,667.21 470.41,664.50 C470.07,663.12 469.49,662.00 469.14,662.00 C468.79,661.99 466.92,661.00 465.00,659.79 C462.37,658.14 460.25,657.66 456.50,657.87 C452.70,658.07 448.25,657.04 438.00,653.57 C423.94,648.82 423.40,648.65 418.50,647.45 C416.85,647.05 414.35,646.14 412.95,645.44 C411.55,644.73 408.40,643.88 405.95,643.55 C401.27,642.91 396.79,641.33 388.49,637.38 C385.46,635.95 381.65,635.00 378.88,635.00 C375.73,635.00 372.43,634.05 368.39,631.97 C365.12,630.29 360.06,628.66 357.00,628.31 C353.68,627.93 349.99,626.68 347.70,625.17 C345.19,623.52 342.25,622.59 339.06,622.44 C336.06,622.30 331.65,620.98 327.44,618.97 C323.14,616.92 319.17,615.75 316.58,615.77 C309.37,615.82 308.44,615.34 306.42,610.45 C304.91,606.78 303.92,605.73 301.52,605.22 C299.86,604.87 298.18,604.67 297.79,604.78 C297.39,604.89 297.36,604.23 297.71,603.32 C298.05,602.42 297.93,601.93 297.42,602.23 C295.78,603.24 296.44,591.66 298.26,587.63 C299.22,585.50 300.00,583.38 300.00,582.91 C300.00,581.88 302.62,580.49 306.15,579.64 C308.43,579.10 308.95,579.42 309.82,581.90 C310.62,584.22 311.59,584.92 314.66,585.42 C316.77,585.77 320.05,585.60 321.93,585.04 C323.82,584.49 325.58,584.25 325.85,584.52 C326.12,584.78 325.79,585.00 325.13,585.00 C324.46,585.00 324.98,586.14 326.27,587.54 C328.02,589.42 329.80,590.14 333.22,590.34 C335.75,590.49 338.42,591.10 339.16,591.71 C340.81,593.08 348.09,593.68 349.84,592.60 C350.55,592.16 351.40,592.07 351.73,592.40 C352.06,592.73 351.70,593.00 350.92,593.01 C350.14,593.02 351.92,594.15 354.88,595.52 C357.84,596.90 360.76,597.93 361.38,597.81 C362.00,597.69 364.90,598.41 367.83,599.40 C371.10,600.51 374.39,600.98 376.33,600.61 C378.52,600.19 379.04,600.30 378.02,600.95 C376.87,601.69 377.52,602.34 381.02,603.93 C383.49,605.04 386.85,605.98 388.50,606.00 C390.15,606.02 393.45,606.93 395.84,608.01 C398.23,609.10 401.49,610.08 403.09,610.20 C404.69,610.33 406.00,610.74 406.00,611.12 C406.00,611.86 413.65,613.42 414.40,612.84 C414.64,612.65 415.93,613.52 417.26,614.77 C420.62,617.93 425.03,619.01 430.02,617.89 C433.80,617.04 434.35,617.17 436.09,619.39 C437.73,621.47 438.73,621.79 443.01,621.57 C445.77,621.43 447.81,621.52 447.56,621.77 C445.49,623.84 460.02,628.99 468.00,629.01 C474.43,629.03 476.60,629.83 477.88,632.64 C480.04,637.37 489.34,639.19 497.50,636.48 C499.12,635.94 499.21,636.02 498.00,636.89 C496.77,637.77 496.97,637.97 499.06,637.98 C500.47,637.99 502.49,638.66 503.56,639.47 C505.78,641.15 510.00,641.49 510.00,640.00 C510.00,639.45 512.59,638.99 515.75,638.98 C525.39,638.95 539.51,637.14 542.59,635.53 C544.19,634.70 546.40,634.00 547.50,633.98 C549.75,633.94 562.24,628.57 561.60,627.92 C561.37,627.69 563.05,627.43 565.34,627.33 C569.22,627.18 578.49,623.83 577.59,622.91 C577.37,622.69 579.98,622.48 583.39,622.46 C587.98,622.43 590.51,621.85 593.16,620.21 C595.41,618.82 598.36,618.00 601.12,617.99 C603.88,617.98 607.03,617.10 609.65,615.61 C611.93,614.30 615.96,612.97 618.61,612.64 C621.27,612.32 624.67,611.14 626.18,610.03 C627.69,608.91 630.47,608.00 632.38,608.00 C634.28,608.00 636.01,607.47 636.23,606.82 C636.46,606.12 638.92,605.59 642.29,605.53 C648.13,605.41 653.82,602.54 653.23,600.01 C653.07,599.37 653.46,599.17 654.09,599.55 C654.71,599.94 655.62,599.64 656.10,598.88 C656.58,598.12 656.98,597.95 656.99,598.50 C657.00,599.05 658.59,599.61 660.52,599.75 C663.40,599.96 664.24,599.56 665.14,597.59 C666.30,595.06 669.60,593.54 670.56,595.09 C671.46,596.55 677.82,596.14 678.70,594.57 C679.14,593.78 680.63,592.98 682.00,592.79 C683.38,592.60 684.95,592.18 685.50,591.86 C687.54,590.64 694.03,588.86 697.75,588.49 C702.05,588.06 713.22,582.60 712.18,581.43 C711.80,581.02 711.98,580.95 712.57,581.29 C713.16,581.62 716.68,581.47 720.39,580.94 C726.01,580.15 727.39,580.24 728.67,581.52 C730.05,582.90 730.04,583.40 728.60,586.43 C727.67,588.40 727.00,592.39 727.00,596.02 C727.00,601.83 726.78,602.44 723.54,605.40 C721.63,607.14 719.38,610.23 718.54,612.25 C717.10,615.70 717.11,615.90 718.75,615.40 C719.71,615.10 719.38,615.54 718.00,616.37 C716.62,617.20 714.52,617.64 713.32,617.35 C712.12,617.06 710.32,617.30 709.32,617.88 C708.06,618.61 707.94,618.95 708.92,618.97 C709.70,618.99 710.08,619.26 709.76,619.57 C709.44,619.89 707.80,619.43 706.11,618.55 C703.36,617.14 702.64,617.12 699.51,618.43 C697.58,619.24 696.00,620.35 696.00,620.91 C696.00,622.09 686.84,624.99 683.07,625.02 C680.34,625.03 674.92,626.77 671.32,628.78 C670.11,629.45 666.96,630.00 664.32,630.01 C660.95,630.01 658.29,630.75 655.50,632.47 C653.30,633.83 650.58,634.95 649.45,634.97 C648.32,634.99 646.86,635.54 646.20,636.20 C645.55,636.85 643.21,637.29 641.01,637.16 C636.88,636.91 634.30,637.85 631.58,640.57 C630.71,641.43 627.97,642.28 625.49,642.46 C623.02,642.63 618.63,643.92 615.74,645.33 C612.86,646.74 608.47,648.14 606.00,648.44 C598.08,649.39 591.56,651.31 589.22,653.39 C587.73,654.71 585.78,655.33 583.58,655.18 C581.73,655.05 578.25,655.58 575.86,656.34 C573.46,657.11 568.80,658.53 565.50,659.49 C562.20,660.46 558.47,662.32 557.21,663.62 C555.95,664.93 555.27,666.01 555.71,666.02 C556.14,666.02 555.84,666.45 555.03,666.96 C554.06,667.58 553.30,667.49 552.82,666.71 C551.56,664.67 544.16,665.50 541.51,667.99 C539.49,669.89 538.52,670.12 535.31,669.46 C533.21,669.03 530.71,668.53 529.74,668.34 C528.60,668.13 527.01,669.40 525.24,671.97 ZM 513.50 728.00 C512.76,729.19 509.31,729.34 508.83,728.20 C508.65,727.76 506.57,726.46 504.21,725.31 C500.62,723.55 499.36,723.38 496.47,724.27 C493.61,725.15 492.70,725.03 491.12,723.61 C490.07,722.66 487.93,721.70 486.36,721.48 C481.04,720.72 478.65,720.05 477.62,719.02 C477.06,718.46 475.64,718.00 474.46,718.00 C473.28,718.00 469.77,717.12 466.66,716.05 C463.55,714.98 461.00,714.33 461.00,714.59 C461.00,714.86 460.07,714.21 458.93,713.15 C457.79,712.09 454.98,710.77 452.68,710.22 C450.38,709.67 446.48,708.68 444.00,708.02 C441.52,707.37 437.92,706.59 436.00,706.28 C434.08,705.98 431.23,704.67 429.67,703.37 C428.12,702.07 426.09,700.95 425.17,700.89 C418.64,700.46 416.71,699.98 413.50,698.00 C409.43,695.48 405.12,694.20 396.82,693.03 C393.61,692.58 389.75,691.25 387.94,689.96 C385.99,688.57 382.74,687.50 379.62,687.22 C376.80,686.96 373.83,686.21 373.00,685.54 C367.98,681.50 359.90,679.95 354.51,682.00 C352.25,682.86 351.45,682.58 348.69,679.97 C346.94,678.31 344.60,676.77 343.50,676.53 C342.40,676.30 339.70,675.79 337.50,675.39 C332.76,674.52 333.37,674.71 329.00,672.75 C326.06,671.44 318.14,670.00 311.95,669.66 C311.09,669.61 310.33,668.74 310.25,667.73 C310.03,664.73 306.51,659.50 304.72,659.49 C301.62,659.47 299.66,656.37 299.84,651.80 C300.03,647.34 298.41,642.00 296.88,642.00 C296.40,642.00 296.00,640.36 296.00,638.36 C296.00,634.37 299.62,630.00 302.94,630.00 C305.20,630.00 312.08,632.90 310.00,632.98 C309.05,633.01 308.89,633.30 309.57,633.77 C310.16,634.17 310.95,635.32 311.32,636.31 C311.91,637.92 312.77,638.04 318.99,637.43 C324.15,636.92 326.00,637.06 326.00,637.94 C326.00,638.68 326.86,638.92 328.25,638.58 C329.49,638.27 329.94,638.27 329.27,638.59 C327.51,639.39 333.21,644.00 335.96,644.00 C337.15,644.00 338.93,643.57 339.90,643.05 C341.94,641.96 346.25,642.79 345.43,644.11 C345.13,644.60 345.31,645.00 345.82,645.00 C346.34,645.00 346.99,645.84 347.26,646.87 C347.99,649.69 359.67,651.55 364.50,649.61 C366.16,648.95 366.24,649.01 365.00,649.99 C363.76,650.97 363.90,651.09 365.82,650.66 C367.22,650.35 368.87,650.82 369.96,651.82 C375.84,657.28 379.80,658.60 387.81,657.75 C390.39,657.48 391.89,657.48 391.15,657.75 C389.06,658.50 397.83,662.18 403.84,663.06 C406.78,663.50 409.96,664.55 410.90,665.41 C411.85,666.27 414.18,667.22 416.07,667.53 C426.37,669.18 430.25,670.46 431.71,672.68 C432.94,674.56 434.12,675.00 437.89,675.00 C441.32,675.00 443.01,675.53 444.27,677.00 C445.77,678.76 450.58,679.52 456.54,678.95 C456.84,678.92 458.45,680.04 460.12,681.45 C462.95,683.83 465.10,684.57 467.50,684.00 C470.57,683.27 477.32,683.16 476.20,683.86 C473.08,685.83 482.48,689.11 490.25,688.77 C493.76,688.62 495.33,689.05 496.70,690.53 C498.29,692.27 499.92,692.51 510.50,692.60 C517.10,692.65 523.74,692.79 525.25,692.91 C527.81,693.12 531.52,690.85 530.42,689.76 C530.16,689.49 532.65,688.74 535.97,688.09 C539.28,687.43 543.68,686.19 545.75,685.32 C547.81,684.44 551.65,683.80 554.28,683.88 C556.91,683.97 560.06,683.50 561.28,682.85 C562.50,682.20 567.35,680.66 572.06,679.43 C576.77,678.21 582.17,676.26 584.06,675.10 C585.95,673.95 588.85,672.99 590.50,672.97 C592.15,672.95 594.62,672.29 596.00,671.50 C597.38,670.71 599.94,670.05 601.69,670.04 C603.73,670.01 605.40,669.27 606.29,667.99 C607.39,666.42 609.09,665.90 614.05,665.61 C619.08,665.31 620.76,664.78 622.15,663.06 C624.12,660.63 625.79,660.32 631.25,661.37 C634.50,661.99 635.33,661.75 637.37,659.55 C638.88,657.92 640.80,657.00 642.71,657.00 C644.35,657.00 650.24,655.43 655.81,653.52 C661.38,651.60 666.60,650.29 667.42,650.61 C669.80,651.52 675.78,649.09 677.95,646.34 C679.76,644.03 680.58,643.82 688.02,643.79 C695.84,643.76 696.20,643.65 698.31,640.76 C701.16,636.87 703.72,635.99 707.52,637.57 C710.17,638.68 711.15,638.61 714.55,637.05 C716.72,636.05 719.28,634.28 720.24,633.12 C722.55,630.30 724.58,630.45 727.55,633.65 C730.66,637.01 730.64,638.32 727.42,640.05 C724.56,641.58 724.48,644.42 727.12,650.84 C728.60,654.42 728.39,654.74 721.02,660.00 C719.66,660.98 718.81,662.85 718.59,665.36 C718.27,669.10 716.48,671.42 714.75,670.35 C714.29,670.06 713.37,670.26 712.71,670.79 C710.86,672.27 706.64,673.39 707.37,672.21 C708.07,671.08 705.84,670.00 702.79,670.00 C700.51,670.00 683.76,676.42 680.22,678.65 C678.96,679.44 678.13,680.41 678.37,680.79 C678.61,681.18 675.06,681.50 670.49,681.50 C663.43,681.50 661.71,681.84 659.12,683.75 C657.34,685.07 654.64,686.00 652.61,686.00 C647.98,686.00 644.00,687.60 644.00,689.46 C644.00,690.91 642.98,691.31 636.50,692.40 C626.45,694.08 622.50,695.10 620.25,696.57 C618.55,697.69 616.49,698.06 613.95,697.72 C610.86,697.31 609.57,697.71 606.89,699.95 C603.93,702.42 603.37,702.56 601.09,701.37 C598.85,700.21 598.28,700.31 596.04,702.28 C594.65,703.50 593.21,704.92 592.83,705.44 C592.45,705.96 589.19,706.69 585.58,707.06 C581.97,707.43 578.29,708.35 577.39,709.09 C575.08,711.01 569.38,713.01 563.06,714.13 C560.07,714.66 554.86,716.19 551.48,717.54 C548.11,718.89 544.68,720.00 543.87,720.00 C543.06,720.00 541.97,720.42 541.45,720.93 C540.93,721.44 536.67,722.37 532.00,723.01 C527.33,723.64 522.79,724.80 521.92,725.58 C521.05,726.36 518.94,727.00 517.23,727.00 C515.52,727.00 513.84,727.45 513.50,728.00 ZM 399.57 295.78 C402.13,297.21 407.67,294.37 409.24,290.82 C409.93,289.27 410.98,288.00 411.59,288.00 C412.93,288.00 416.20,284.53 415.51,283.84 C415.23,283.57 416.02,283.38 417.25,283.42 C419.58,283.50 419.89,282.35 418.62,278.36 C418.11,276.76 418.69,275.52 420.97,273.37 C425.08,269.49 424.84,267.60 420.05,266.02 C416.85,264.96 414.47,262.73 414.96,261.24 C415.44,259.75 411.39,255.02 408.80,254.07 C406.98,253.40 404.08,252.16 402.35,251.32 C400.37,250.36 398.10,250.04 396.22,250.45 C391.64,251.46 385.16,256.10 384.10,259.13 C383.58,260.62 382.27,262.32 381.19,262.90 C378.75,264.20 377.51,268.70 379.07,270.58 C379.70,271.35 379.95,273.08 379.61,274.43 C379.27,275.77 379.40,277.13 379.90,277.44 C380.59,277.87 383.12,286.04 383.47,289.00 C383.75,291.39 385.61,292.19 389.65,291.63 C393.14,291.16 394.42,291.42 395.90,292.90 C396.93,293.93 398.58,295.23 399.57,295.78 ZM 329.34 291.01 C333.70,292.95 341.50,293.62 342.42,292.13 C342.71,291.66 344.08,291.48 345.46,291.75 C349.89,292.59 352.89,291.19 354.41,287.56 C355.35,285.30 356.61,284.05 358.17,283.83 C360.40,283.51 360.50,283.12 360.58,275.00 C360.62,270.33 361.01,265.26 361.44,263.75 C362.19,261.15 362.06,261.00 358.95,261.00 C354.59,261.00 352.00,258.52 352.00,254.35 C352.00,250.35 350.18,249.99 345.23,253.00 C341.32,255.38 338.69,255.54 337.00,253.50 C335.62,251.83 330.00,251.43 330.00,253.00 C330.00,256.62 328.38,258.73 324.54,260.12 C320.48,261.59 318.40,265.58 319.53,269.73 C319.94,271.25 320.34,274.38 320.42,276.67 C320.49,278.97 321.27,281.67 322.16,282.67 C323.04,283.68 324.08,285.55 324.47,286.83 C324.91,288.26 326.79,289.88 329.34,291.01 ZM 460.32 294.35 C459.96,294.71 460.34,295.00 461.16,295.00 C463.21,295.00 473.55,287.56 473.29,286.27 C473.17,285.68 474.54,285.33 476.45,285.46 C479.36,285.65 479.88,285.33 480.28,283.09 C481.00,279.16 479.51,268.67 478.18,268.23 C477.53,268.01 477.00,266.27 477.00,264.35 C477.00,259.88 475.60,257.34 471.91,255.09 C469.17,253.42 464.00,253.31 464.00,254.92 C464.00,255.29 462.40,255.41 460.45,255.18 C458.50,254.96 457.14,254.53 457.43,254.23 C458.46,253.21 454.72,251.33 452.50,251.75 C451.28,251.99 448.26,254.12 445.78,256.49 C441.36,260.73 440.00,263.91 440.00,270.07 C440.00,271.61 439.55,273.16 439.00,273.50 C437.02,274.73 437.91,279.89 440.38,281.51 C441.94,282.53 442.97,284.42 443.38,286.99 C443.94,290.51 444.37,290.98 447.50,291.57 C449.42,291.93 452.07,291.95 453.39,291.62 C455.88,290.99 461.47,293.20 460.32,294.35 ZM 157.77 640.00 C157.37,640.00 156.91,649.56 156.75,661.25 C156.59,672.94 156.35,681.86 156.23,681.08 C156.10,680.30 155.70,679.96 155.34,680.32 C154.98,680.69 154.08,680.48 153.34,679.87 C152.24,678.95 152.00,662.62 152.00,587.50 C152.00,507.60 152.19,496.09 153.50,495.00 C154.32,494.32 155.07,494.15 155.16,494.63 C155.24,495.11 155.65,493.25 156.06,490.50 C156.49,487.63 156.62,491.68 156.36,500.00 C156.12,507.98 155.97,515.85 156.03,517.50 C156.09,519.15 156.35,533.66 156.60,549.75 C156.85,565.84 157.38,579.00 157.78,579.00 C158.18,579.00 158.50,592.72 158.50,609.50 C158.50,626.27 158.17,640.00 157.77,640.00 ZM 155.69 476.72 C155.36,482.41 155.12,482.95 153.25,482.28 C152.26,481.93 152.00,464.18 152.00,398.11 C152.00,326.04 152.20,314.11 153.47,312.44 C154.28,311.37 155.00,310.95 155.07,311.50 C155.14,312.05 155.56,311.38 156.00,310.00 C156.48,308.52 156.84,314.30 156.90,324.25 C156.98,336.92 157.30,341.00 158.25,341.02 C159.24,341.03 159.23,341.20 158.23,341.84 C157.24,342.47 156.86,356.56 156.48,407.07 C156.22,442.51 155.86,473.85 155.69,476.72 ZM 287.57 860.55 C287.57,862.45 287.33,863.95 287.04,863.90 C278.93,862.33 275.67,859.47 278.63,856.51 C279.53,855.62 280.92,855.14 281.72,855.45 C282.53,855.76 284.17,856.26 285.38,856.56 C287.10,856.99 287.57,857.84 287.57,860.55 ZM 865.00 274.43 C865.00,279.94 863.41,278.66 861.68,271.77 C860.24,266.08 860.25,265.39 861.71,263.77 C862.59,262.80 863.91,262.00 864.64,262.00 C866.47,262.00 867.40,266.38 866.09,268.84 C865.49,269.96 865.00,272.47 865.00,274.43 ZM 163.17 736.35 C160.76,738.53 160.11,738.44 159.12,735.75 C157.10,730.26 157.00,728.14 158.70,726.44 C159.82,725.33 160.54,725.13 160.79,725.87 C161.00,726.50 161.54,726.78 161.99,726.50 C162.44,726.23 162.59,726.84 162.33,727.86 C162.03,728.98 162.47,729.97 163.42,730.33 C165.55,731.15 165.42,734.31 163.17,736.35 ZM 261.58 848.68 C261.44,849.61 260.47,850.94 259.41,851.64 C257.79,852.72 256.95,852.58 254.00,850.73 C252.07,849.53 250.35,848.20 250.16,847.77 C249.98,847.34 249.31,847.29 248.66,847.67 C248.02,848.04 248.32,847.40 249.33,846.25 C250.79,844.59 251.71,844.33 253.83,845.00 C255.30,845.46 257.70,846.10 259.16,846.41 C260.92,846.80 261.74,847.57 261.58,848.68 ZM 768.25 152.53 C764.07,154.31 759.47,153.06 758.46,149.87 C757.12,145.66 760.02,144.95 766.04,148.02 C770.37,150.23 770.94,151.39 768.25,152.53 ZM 748.65 860.25 C749.52,861.65 747.23,861.01 745.12,859.25 C742.42,857.01 743.37,855.70 749.11,853.77 C755.52,851.61 756.92,852.92 752.09,856.56 C749.94,858.17 748.40,859.83 748.65,860.25 ZM 789.33 160.26 C790.95,161.44 790.94,161.61 789.17,163.12 C787.59,164.47 786.92,164.53 784.91,163.45 C783.60,162.75 782.18,162.39 781.76,162.65 C781.34,162.91 781.00,162.61 781.00,162.00 C781.00,161.39 780.52,161.18 779.93,161.55 C779.34,161.91 779.44,161.27 780.15,160.12 C781.69,157.67 784.31,156.44 784.81,157.94 C785.01,158.52 785.72,159.00 786.39,159.00 C787.07,159.00 788.39,159.57 789.33,160.26 ZM 199.71 806.38 C201.55,808.22 198.89,806.63 196.65,804.55 C193.88,801.98 193.61,801.19 194.61,798.58 C195.53,796.19 197.38,796.67 199.80,799.94 C201.69,802.50 201.79,803.07 200.53,804.32 C199.74,805.11 199.37,806.04 199.71,806.38 ZM 215.51 817.85 C215.67,820.12 209.54,820.25 207.52,818.02 C206.22,816.59 206.26,816.23 207.80,814.95 C211.32,812.03 215.19,813.48 215.51,817.85 ZM 855.24 240.65 C854.65,240.29 854.02,240.43 853.84,240.96 C853.38,242.29 851.55,240.97 850.15,238.32 C849.23,236.57 849.32,235.83 850.57,234.57 C852.71,232.44 854.71,232.60 856.00,235.00 C856.62,236.16 856.67,237.00 856.13,237.00 C855.61,237.00 855.44,237.97 855.75,239.16 C856.11,240.55 855.93,241.08 855.24,240.65 ZM 271.49 148.92 C272.05,151.86 267.09,153.26 264.75,150.82 C262.26,148.23 262.54,147.48 266.50,146.26 C270.12,145.15 270.83,145.53 271.49,148.92 ZM 169.43 753.67 C166.64,755.71 165.29,755.28 164.14,751.97 C163.51,750.17 163.47,749.17 164.04,749.52 C164.57,749.85 165.00,749.64 165.00,749.06 C165.00,748.48 166.09,748.00 167.43,748.00 C170.68,748.00 172.01,751.79 169.43,753.67 ZM 832.54 205.07 C832.86,205.58 832.98,205.95 832.81,205.88 C832.64,205.82 831.78,205.57 830.89,205.34 C828.57,204.72 826.36,200.24 827.70,198.90 C829.59,197.01 833.49,198.25 833.61,200.77 C833.68,202.03 833.33,203.29 832.85,203.59 C832.36,203.89 832.23,204.56 832.54,205.07 ZM 869.08 295.55 C868.57,295.23 868.00,295.74 867.82,296.68 C867.56,298.02 867.27,297.87 866.44,295.94 C864.88,292.33 866.03,288.47 868.67,288.49 C869.86,288.49 871.17,288.84 871.58,289.25 C872.00,289.66 871.81,290.00 871.17,290.00 C870.53,290.00 870.00,291.38 870.00,293.06 C870.00,294.74 869.58,295.86 869.08,295.55 ZM 781.00 845.89 C779.22,847.17 779.13,847.17 776.25,845.78 C773.41,844.41 773.39,842.86 776.18,841.12 C778.08,839.93 778.52,839.99 779.66,841.55 C780.64,842.88 780.68,843.68 779.84,844.69 C778.95,845.77 779.10,845.92 780.61,845.43 C782.17,844.92 782.23,845.00 781.00,845.89 ZM 800.51 173.01 C800.80,173.49 800.10,173.81 798.95,173.72 C796.33,173.52 795.69,172.55 796.50,169.99 C797.24,167.68 799.81,167.41 802.50,169.37 C804.31,170.70 804.30,170.77 802.17,171.45 C800.96,171.83 800.21,172.53 800.51,173.01 ZM 229.24 830.80 C223.59,832.93 221.78,831.53 225.19,827.67 C226.85,825.79 226.92,825.79 229.42,827.76 L 231.97 829.77 ZM 172.97 761.25 C172.95,762.49 172.33,764.30 171.58,765.29 C170.32,766.94 170.14,766.84 169.11,763.89 C167.55,759.42 167.67,759.00 170.50,759.00 C172.44,759.00 172.99,759.51 172.97,761.25 ZM 845.54 218.55 C845.59,220.83 842.94,221.54 841.13,219.73 C839.48,218.08 839.74,216.64 841.95,215.26 C844.19,213.86 845.45,215.02 845.54,218.55 ZM 351.25 136.28 C353.09,136.50 351.83,136.75 348.36,136.84 C343.71,136.96 342.07,136.63 341.64,135.50 C341.28,134.57 341.64,134.00 342.59,134.00 C343.43,134.00 343.88,133.62 343.59,133.14 C343.30,132.67 344.17,132.50 345.53,132.76 C346.89,133.02 348.00,133.83 348.00,134.55 C348.00,135.29 349.43,136.05 351.25,136.28 ZM 187.54 788.89 C186.70,791.53 184.86,791.60 183.26,789.05 C182.27,787.45 182.34,786.80 183.67,785.48 C185.09,784.06 185.47,784.04 186.75,785.32 C187.65,786.22 187.95,787.58 187.54,788.89 ZM 860.79 249.85 C861.81,250.50 861.71,251.13 860.29,252.83 C858.43,255.07 856.80,254.71 855.74,251.83 C855.28,250.59 855.94,249.87 858.22,249.07 C859.93,248.48 861.55,248.22 861.83,248.50 C862.11,248.77 861.70,249.01 860.92,249.02 C859.79,249.03 859.77,249.20 860.79,249.85 ZM 235.00 168.00 C235.88,168.57 236.01,168.98 235.32,168.98 C234.67,168.99 233.49,168.35 232.69,167.55 C231.89,166.75 230.90,166.41 230.49,166.80 C230.08,167.18 230.35,166.49 231.11,165.25 C232.80,162.47 233.49,162.45 236.84,165.10 C238.30,166.25 238.82,167.10 238.00,166.98 C237.18,166.86 235.82,166.82 235.00,166.90 C233.67,167.02 233.67,167.14 235.00,168.00 ZM 249.82 160.13 C248.16,161.18 247.89,161.17 245.75,159.92 C244.79,159.36 244.00,158.25 244.00,157.45 C244.00,155.49 247.47,155.61 249.50,157.65 C250.83,158.97 250.89,159.45 249.82,160.13 ZM 159.06 290.54 C158.55,290.22 158.00,290.87 157.82,291.96 C157.30,295.19 154.79,292.75 155.17,289.39 C155.57,285.92 157.92,285.56 159.12,288.80 C159.63,290.17 159.60,290.87 159.06,290.54 ZM 767.06 851.47 C763.90,853.10 761.57,853.56 763.90,852.09 C765.01,851.38 764.91,851.12 763.40,850.80 C761.80,850.46 761.97,850.15 764.50,848.81 C767.02,847.47 767.70,847.44 768.76,848.58 C769.79,849.69 769.49,850.21 767.06,851.47 ZM 725.84 865.12 C723.97,866.31 723.29,866.21 722.70,864.66 C721.92,862.62 723.28,861.20 725.32,861.93 C727.49,862.70 727.69,863.95 725.84,865.12 ZM 179.20 772.80 C179.96,773.56 179.81,774.33 178.68,775.46 C177.23,776.91 177.00,776.87 176.00,775.01 C175.13,773.38 175.24,772.85 176.52,772.35 C177.41,772.01 178.62,772.22 179.20,772.80 ZM 792.24 838.31 C792.93,838.58 792.57,838.75 791.43,838.70 C788.48,838.56 786.26,836.07 788.08,834.95 C789.56,834.04 792.30,835.71 791.48,837.03 C791.21,837.47 791.55,838.05 792.24,838.31 ZM 718.25 641.34 C720.51,642.25 722.17,642.02 721.78,640.85 C721.17,639.00 717.00,637.79 717.00,639.45 C717.00,640.21 717.56,641.06 718.25,641.34 ZM 717.21 139.18 C714.74,140.16 713.27,140.12 714.86,139.11 C716.01,138.38 716.01,138.16 714.86,137.74 C713.85,137.36 713.98,137.04 715.35,136.47 C716.54,135.98 717.51,136.20 718.06,137.10 C718.65,138.05 718.38,138.72 717.21,139.18 ZM 844.00 782.61 C844.00,784.25 843.37,784.41 842.49,782.98 C842.14,782.42 841.45,782.22 840.94,782.54 C840.44,782.85 840.28,782.43 840.59,781.62 C841.28,779.83 844.00,780.63 844.00,782.61 ZM 366.00 274.50 C366.00,275.42 366.48,276.01 367.08,275.81 C367.67,275.61 368.15,275.02 368.15,274.50 C368.15,273.98 367.67,273.39 367.08,273.19 C366.48,272.99 366.00,273.58 366.00,274.50 ZM 311.00 711.44 C311.00,712.30 311.45,713.00 312.00,713.00 C312.55,713.00 313.00,712.58 313.00,712.06 C313.00,711.54 312.55,710.84 312.00,710.50 C311.45,710.16 311.00,710.58 311.00,711.44 ZM 695.50 624.00 C695.16,624.55 694.68,625.00 694.44,625.00 C694.20,625.00 694.00,624.55 694.00,624.00 C694.00,623.45 694.48,623.00 695.06,623.00 C695.64,623.00 695.84,623.45 695.50,624.00 Z" fill="rgb(1,24,65)"/>
<path d="M 157.77 640.00 C158.17,640.00 158.50,626.27 158.50,609.50 C158.50,592.72 158.18,579.00 157.78,579.00 C157.38,579.00 156.85,565.84 156.60,549.75 C156.35,533.66 156.09,519.15 156.03,517.50 C155.97,515.85 156.12,507.98 156.36,500.00 C156.62,491.68 156.49,487.63 156.06,490.50 C155.65,493.25 155.24,495.11 155.16,494.63 C155.07,494.15 154.32,494.32 153.50,495.00 C152.38,495.93 152.08,504.44 152.02,556.45 C151.95,515.68 151.96,471.53 152.03,431.44 C152.13,470.44 152.46,482.00 153.25,482.28 C155.12,482.95 155.36,482.41 155.69,476.72 C155.86,473.85 156.22,442.51 156.48,407.07 C156.86,356.56 157.24,342.47 158.23,341.84 C159.23,341.20 159.24,341.03 158.25,341.02 C157.30,341.00 156.98,336.92 156.90,324.25 C156.84,314.30 156.48,308.52 156.00,310.00 C155.56,311.38 155.14,312.05 155.07,311.50 C155.00,310.95 154.28,311.37 153.47,312.44 C153.09,312.94 152.81,314.37 152.59,318.06 C152.72,307.41 152.87,300.48 153.04,298.40 C156.50,255.39 173.21,218.29 202.94,187.65 C219.91,170.15 240.00,156.87 263.39,147.71 C262.79,148.43 263.30,149.31 264.75,150.82 C267.09,153.26 272.05,151.86 271.49,148.92 C270.99,146.35 270.46,145.51 268.67,145.74 C277.94,142.42 287.71,139.72 298.00,137.63 C301.45,136.93 304.35,136.33 307.26,135.81 C315.32,134.36 323.49,133.55 343.56,133.09 C343.57,133.11 343.58,133.13 343.59,133.14 C343.88,133.62 343.43,134.00 342.59,134.00 C341.64,134.00 341.28,134.57 341.64,135.50 C342.07,136.63 343.71,136.96 348.36,136.84 C351.83,136.75 353.09,136.50 351.25,136.28 C349.43,136.05 348.00,135.29 348.00,134.55 C348.00,134.00 347.35,133.40 346.44,133.03 C372.91,132.50 418.77,132.50 506.93,132.50 L 519.00 132.50 L 705.50 132.50 L 719.38 134.72 C733.08,136.91 740.30,138.74 755.00,143.72 C756.80,144.33 759.11,145.24 761.64,146.30 C758.70,145.65 757.51,146.87 758.46,149.87 C759.47,153.06 764.07,154.31 768.25,152.53 C770.49,151.58 770.47,150.61 767.89,149.04 C774.81,152.18 781.78,155.68 784.15,157.31 C783.14,157.09 781.33,158.25 780.15,160.12 C779.44,161.27 779.34,161.91 779.93,161.55 C780.52,161.18 781.00,161.39 781.00,162.00 C781.00,162.61 781.34,162.91 781.76,162.65 C782.18,162.39 783.60,162.75 784.91,163.45 C786.92,164.53 787.59,164.47 789.17,163.12 C790.63,161.87 790.89,161.53 790.03,160.79 C792.81,162.48 796.69,165.23 800.89,168.45 C798.84,167.60 797.09,168.15 796.50,169.99 C795.69,172.55 796.33,173.52 798.95,173.72 C800.10,173.81 800.80,173.49 800.51,173.01 C800.21,172.53 800.96,171.83 802.17,171.45 C803.16,171.13 803.69,170.95 803.79,170.71 C810.98,176.37 818.58,182.95 823.06,187.68 C836.84,202.25 847.36,217.25 855.32,234.01 C854.06,232.61 852.36,232.78 850.57,234.57 C849.32,235.83 849.23,236.57 850.15,238.32 C851.55,240.97 853.38,242.29 853.84,240.96 C854.02,240.43 854.65,240.29 855.24,240.65 C855.93,241.08 856.11,240.55 855.75,239.16 C855.44,237.97 855.61,237.00 856.13,237.00 C856.37,237.00 856.49,236.84 856.50,236.56 C858.25,240.40 859.87,244.34 861.36,248.38 C860.70,248.38 859.48,248.63 858.22,249.07 C855.94,249.87 855.28,250.59 855.74,251.83 C856.80,254.71 858.43,255.07 860.29,252.83 C861.71,251.13 861.81,250.50 860.79,249.85 C859.77,249.20 859.79,249.03 860.92,249.02 C861.18,249.01 861.40,248.98 861.56,248.94 C863.27,253.61 864.81,258.43 866.21,263.42 C865.84,262.57 865.30,262.00 864.64,262.00 C863.91,262.00 862.59,262.80 861.71,263.77 C860.51,265.09 860.29,265.79 861.03,269.11 C860.84,268.39 860.64,267.64 860.43,266.85 C852.61,237.41 837.82,211.83 816.00,189.99 C799.11,173.09 780.43,160.63 759.00,151.96 C739.87,144.22 723.66,140.70 699.00,138.92 C677.52,137.38 332.57,138.26 320.50,139.89 C285.60,144.60 259.64,153.39 235.72,168.64 C235.63,168.47 235.39,168.25 235.00,168.00 C233.67,167.14 233.67,167.02 235.00,166.90 C235.82,166.82 237.18,166.86 238.00,166.98 C238.82,167.10 238.30,166.25 236.84,165.10 C233.49,162.45 232.80,162.47 231.11,165.25 C230.35,166.49 230.08,167.18 230.49,166.80 C230.90,166.41 231.89,166.75 232.69,167.55 C233.44,168.29 234.52,168.91 235.19,168.98 C234.63,169.34 234.06,169.71 233.50,170.08 C218.70,179.81 198.32,200.11 188.39,215.02 C172.53,238.82 163.19,264.57 160.10,293.00 C158.58,306.93 158.41,693.50 159.92,705.50 C165.11,746.88 180.69,780.26 207.93,808.33 C240.89,842.29 281.60,861.19 329.77,864.89 C345.75,866.12 684.06,866.20 698.00,864.97 C726.43,862.48 752.51,854.55 775.64,841.48 C773.41,843.07 773.61,844.51 776.25,845.78 C777.89,846.57 778.62,846.91 779.28,846.82 C769.52,852.36 759.36,857.01 748.84,860.76 C748.85,860.63 748.79,860.47 748.65,860.25 C748.40,859.83 749.94,858.17 752.09,856.56 C756.92,852.92 755.52,851.61 749.11,853.77 C743.37,855.70 742.42,857.01 745.12,859.25 C746.28,860.21 747.49,860.84 748.20,860.98 C735.39,865.50 722.03,868.68 708.20,870.51 C698.49,871.79 671.08,871.98 514.20,871.84 C413.71,871.75 329.92,871.53 328.00,871.35 C313.68,870.01 300.07,867.47 287.20,863.75 C287.42,863.34 287.57,862.07 287.57,860.55 C287.57,857.84 287.10,856.99 285.38,856.56 C284.17,856.26 282.53,855.76 281.72,855.45 C280.92,855.14 279.53,855.62 278.63,856.51 C276.90,858.25 277.30,859.95 279.56,861.37 C271.83,858.79 264.38,855.76 257.24,852.29 C258.01,852.41 258.61,852.17 259.41,851.64 C260.47,850.94 261.44,849.61 261.58,848.68 C261.74,847.57 260.92,846.80 259.16,846.41 C257.70,846.10 255.30,845.46 253.83,845.00 C251.71,844.33 250.79,844.59 249.33,846.25 C248.74,846.92 248.40,847.42 248.34,847.64 C233.73,839.49 220.61,829.90 209.12,819.07 C211.72,820.12 215.64,819.67 215.51,817.85 C215.19,813.48 211.32,812.03 207.80,814.95 C206.89,815.70 206.51,816.14 206.61,816.66 C198.34,808.57 190.96,799.82 184.50,790.48 C185.72,791.40 186.91,790.86 187.54,788.89 C187.95,787.58 187.65,786.22 186.75,785.32 C185.47,784.04 185.09,784.06 183.67,785.48 C182.77,786.37 182.45,786.96 182.64,787.74 C178.10,780.91 174.04,773.77 170.49,766.36 C170.77,766.31 171.09,765.93 171.58,765.29 C172.33,764.30 172.95,762.49 172.97,761.25 C172.99,759.51 172.44,759.00 170.50,759.00 C168.12,759.00 167.66,759.30 168.50,762.06 C167.32,759.42 166.21,756.75 165.15,754.05 C166.14,755.33 167.41,755.16 169.43,753.67 C172.01,751.79 170.68,748.00 167.43,748.00 C166.09,748.00 165.00,748.48 165.00,749.06 C165.00,749.64 164.57,749.85 164.04,749.52 C163.74,749.34 163.61,749.53 163.65,750.03 C161.96,745.38 160.46,740.64 159.15,735.82 C160.12,738.44 160.78,738.51 163.17,736.35 C165.42,734.31 165.55,731.15 163.42,730.33 C162.47,729.97 162.03,728.98 162.33,727.86 C162.59,726.84 162.44,726.23 161.99,726.50 C161.54,726.78 161.00,726.50 160.79,725.87 C160.54,725.13 159.82,725.33 158.70,726.44 C157.92,727.22 157.52,728.10 157.51,729.35 C155.33,720.05 153.83,710.46 153.04,700.60 C152.83,698.00 152.65,687.78 152.50,672.20 C152.70,677.54 152.97,679.56 153.34,679.87 C154.08,680.48 154.98,680.69 155.34,680.32 C155.70,679.96 156.10,680.30 156.23,681.08 C156.35,681.86 156.59,672.94 156.75,661.25 C156.91,649.56 157.37,640.00 157.77,640.00 ZM 279.32 549.77 C280.52,549.10 284.20,548.31 287.50,548.02 L 293.50 547.50 L 293.81 542.60 C294.02,539.34 293.68,537.42 292.81,536.88 C291.76,536.24 291.58,530.19 291.89,506.79 C292.61,453.68 292.63,439.73 292.00,418.50 C291.38,397.05 292.39,340.50 293.46,337.11 C293.80,336.06 295.36,334.98 297.03,334.64 C298.71,334.31 300.00,333.41 300.00,332.58 C300.00,330.63 303.70,328.12 305.81,328.63 C306.74,328.85 309.08,327.63 311.00,325.91 C314.16,323.10 314.93,322.86 319.00,323.44 C321.48,323.79 323.95,324.05 324.50,324.03 C357.78,322.63 420.31,322.70 420.85,324.14 C421.06,324.71 426.14,324.77 433.85,324.29 C440.81,323.85 448.52,323.60 451.00,323.71 C453.48,323.83 459.77,324.14 465.00,324.39 C470.74,324.67 473.71,324.52 472.50,324.00 C470.57,323.17 470.58,323.14 472.69,323.07 C473.90,323.03 475.15,323.43 475.47,323.95 C475.79,324.47 479.88,324.90 484.56,324.90 C489.67,324.90 492.82,324.52 492.47,323.95 C492.15,323.43 492.70,322.94 493.69,322.87 C498.86,322.51 500.03,322.07 502.28,319.64 C503.63,318.19 505.35,316.99 506.11,316.98 C506.19,316.98 506.27,316.98 506.34,316.98 L 502.14 326.50 L 407.82 327.00 L 313.50 327.50 L 308.86 330.23 C306.30,331.73 303.05,334.34 301.63,336.03 C301.00,336.77 300.45,337.41 299.95,338.09 C296.00,343.52 296.00,351.83 296.00,442.07 L 296.00 448.65 C296.00,542.19 295.90,547.98 294.25,548.85 C293.29,549.35 287.95,551.39 282.38,553.38 C276.82,555.37 271.97,557.00 271.61,557.00 C271.24,557.00 271.08,493.89 271.24,416.75 C271.26,405.34 271.28,394.83 271.30,385.14 C271.48,283.41 271.50,272.14 275.76,262.81 C276.69,260.76 277.84,258.80 279.23,256.00 C282.58,249.25 285.32,245.62 292.48,238.37 C299.97,230.79 302.94,228.56 310.00,225.17 C312.72,223.86 314.56,222.78 316.49,221.88 C325.89,217.48 337.34,217.46 463.70,217.29 C476.99,217.27 491.54,217.25 507.50,217.22 C632.65,217.00 686.97,217.24 692.95,218.02 C720.51,221.63 743.42,241.70 751.70,269.50 C753.37,275.12 753.50,284.44 753.76,415.43 C753.92,492.39 753.69,555.69 753.27,556.09 C752.85,556.49 747.33,554.94 741.00,552.65 L 729.50 548.48 L 729.00 445.99 C728.55,353.23 728.34,343.22 726.85,340.50 C724.35,335.94 720.72,332.42 715.88,329.83 L 711.50 327.50 L 618.95 327.23 L 526.40 326.96 L 520.57 313.98 C517.36,306.84 514.43,301.00 514.06,301.00 C513.68,301.00 510.85,306.74 507.76,313.75 L 506.59 316.41 C506.46,316.31 506.29,316.20 506.08,316.07 C503.79,314.62 504.45,309.62 507.61,304.47 C511.23,298.58 513.21,298.11 515.36,302.63 C516.26,304.51 518.07,306.46 519.40,306.96 C522.72,308.22 523.33,309.56 523.14,315.11 C522.94,320.74 524.91,322.48 530.34,321.46 C533.21,320.93 533.98,321.26 536.07,323.91 C537.72,326.00 539.38,326.98 541.25,326.99 C542.76,327.00 544.00,326.55 544.00,326.00 C544.00,325.45 545.05,325.00 546.33,325.00 C547.62,325.00 548.97,324.70 549.34,324.32 C550.28,323.39 652.08,323.32 652.65,324.25 C653.22,325.17 666.41,325.26 667.32,324.35 C667.86,323.81 700.16,323.66 703.52,324.18 C704.08,324.26 705.71,324.04 707.15,323.68 C709.15,323.18 710.63,323.72 713.51,326.01 C717.37,329.07 718.14,329.37 721.34,329.04 C722.76,328.89 723.04,329.31 722.55,330.84 C722.20,331.93 722.39,333.13 722.98,333.48 C723.56,333.84 723.82,334.48 723.56,334.90 C723.30,335.33 724.64,336.41 726.54,337.32 C728.44,338.23 730.05,339.31 730.11,339.73 C730.18,340.16 730.40,341.85 730.61,343.50 C730.81,345.15 731.10,390.38 731.24,444.00 L 731.50 541.50 L 734.84 545.65 C737.72,549.24 738.59,549.73 741.24,549.31 C748.32,548.20 748.98,547.53 749.22,541.27 C749.34,538.10 749.52,477.67 749.62,407.00 C749.72,336.33 749.84,277.16 749.87,275.52 C749.91,273.89 749.16,271.47 748.22,270.15 C743.24,263.19 742.91,262.43 743.34,258.86 C743.70,255.91 743.37,254.99 741.64,254.03 C739.06,252.60 735.00,246.54 735.00,244.11 C735.00,242.10 730.68,238.00 728.55,238.00 C727.76,238.00 726.53,237.19 725.81,236.20 C725.09,235.21 723.05,233.81 721.28,233.09 C719.51,232.37 717.79,230.92 717.46,229.87 C716.59,227.12 713.02,225.08 707.92,224.41 C705.49,224.09 701.08,222.70 698.11,221.32 C693.58,219.21 692.00,218.94 688.11,219.62 C685.58,220.06 682.83,220.34 682.00,220.24 C679.64,219.96 345.46,220.21 336.41,220.50 C331.95,220.65 327.45,221.22 326.41,221.78 C323.87,223.13 318.81,223.62 317.25,222.65 C316.52,222.21 316.00,222.37 316.00,223.05 C316.00,223.69 315.30,223.95 314.45,223.62 C313.59,223.29 313.13,223.40 313.42,223.87 C313.70,224.33 312.83,225.21 311.47,225.83 C310.11,226.45 309.00,227.40 309.00,227.93 C309.00,228.47 306.86,230.37 304.25,232.16 C299.75,235.25 292.52,242.13 287.00,248.58 C284.62,251.36 283.44,253.55 279.61,262.35 C278.69,264.47 277.08,266.43 276.03,266.70 C274.46,267.11 274.29,267.63 275.06,269.67 C276.39,273.14 276.24,274.62 274.38,276.48 C272.99,277.86 272.86,279.49 273.49,287.30 C273.89,292.36 274.16,353.34 274.09,422.82 C274.02,492.29 274.22,549.55 274.54,550.07 C275.32,551.33 276.70,551.24 279.32,549.77 ZM 865.00 274.43 C865.00,272.47 865.49,269.96 866.09,268.84 C866.68,267.73 866.82,266.21 866.61,264.90 C867.97,269.90 869.18,275.07 870.26,280.43 L 872.47 291.50 L 872.79 492.00 C873.01,631.28 872.77,695.99 872.01,703.94 C866.72,759.50 838.39,807.47 792.59,838.55 C792.59,838.48 792.48,838.40 792.24,838.31 C791.55,838.05 791.21,837.47 791.48,837.03 C792.30,835.71 789.56,834.04 788.08,834.95 C786.26,836.07 788.48,838.56 791.43,838.70 C791.90,838.72 792.24,838.70 792.43,838.66 C791.63,839.20 790.82,839.74 790.00,840.28 C787.16,842.14 784.28,843.92 781.36,845.62 C782.20,844.99 781.99,844.98 780.61,845.43 C779.10,845.92 778.95,845.77 779.84,844.69 C780.68,843.68 780.64,842.88 779.66,841.55 C778.84,840.43 778.38,840.09 777.49,840.42 C792.08,831.94 805.46,821.39 817.50,808.85 C843.38,781.86 858.77,750.19 864.79,711.50 C866.36,701.39 866.50,684.27 866.50,499.50 C866.50,488.40 866.50,477.90 866.50,467.95 C866.51,307.41 866.52,291.08 862.77,275.65 C862.71,275.41 862.64,275.16 862.58,274.91 C863.93,278.90 865.00,278.96 865.00,274.43 ZM 528.86 778.22 C529.27,777.56 531.98,776.57 534.88,776.02 C537.78,775.47 540.57,774.76 541.08,774.45 C541.59,774.13 544.07,773.71 546.58,773.50 C549.09,773.30 552.23,772.43 553.54,771.57 C554.85,770.70 556.54,770.00 557.28,770.00 C558.02,770.00 560.53,769.08 562.86,767.95 C565.19,766.83 568.53,765.77 570.30,765.60 C574.86,765.15 579.16,763.90 581.65,762.29 C582.83,761.53 585.08,760.70 586.65,760.46 C591.12,759.75 597.06,758.02 602.50,755.83 C605.25,754.72 608.85,753.46 610.50,753.03 C612.15,752.59 614.78,751.56 616.34,750.72 C617.90,749.88 620.35,749.32 621.77,749.48 C623.28,749.65 625.03,749.03 625.93,748.02 C626.80,747.06 630.20,745.69 633.50,744.97 C636.80,744.25 641.45,742.77 643.83,741.68 C646.22,740.59 649.58,739.74 651.31,739.79 C653.04,739.84 654.77,739.38 655.15,738.76 C655.53,738.14 657.69,737.55 659.96,737.44 C662.23,737.33 664.85,736.58 665.79,735.77 C666.73,734.97 670.42,733.52 674.00,732.56 C677.58,731.60 682.38,729.73 684.68,728.41 C686.98,727.08 690.13,726.00 691.68,726.00 C693.23,726.00 696.79,725.13 699.60,724.06 C702.40,723.00 706.01,722.16 707.63,722.21 C710.81,722.30 718.90,717.34 718.96,715.26 C718.98,714.58 721.03,712.11 723.50,709.78 C728.24,705.32 728.97,703.11 726.50,700.64 C724.61,698.76 724.63,698.52 726.69,696.45 C728.89,694.25 728.78,687.52 726.51,685.01 C725.21,683.58 724.25,683.34 722.50,684.00 C721.24,684.48 719.93,684.60 719.60,684.27 C719.27,683.94 719.00,684.24 719.00,684.94 C719.00,685.73 718.35,685.97 717.28,685.55 C716.33,685.19 715.87,685.20 716.25,685.58 C716.63,685.96 715.35,687.53 713.42,689.07 C710.61,691.29 708.84,691.88 704.70,691.92 C698.26,691.98 694.65,692.35 694.00,693.00 C692.50,694.50 681.59,699.00 679.45,699.00 C678.07,699.00 675.41,699.64 673.55,700.41 C671.69,701.19 669.90,701.57 669.58,701.25 C669.26,700.93 669.00,701.12 669.00,701.68 C669.00,703.54 661.57,706.04 655.35,706.27 C651.98,706.40 649.38,706.79 649.59,707.13 C649.80,707.48 648.74,708.22 647.24,708.78 C645.73,709.34 641.97,710.77 638.88,711.96 C635.79,713.15 631.00,714.21 628.23,714.31 C625.46,714.42 623.37,714.79 623.58,715.14 C624.45,716.54 621.21,717.83 616.00,718.16 C611.51,718.44 610.05,719.00 608.03,721.25 C605.41,724.16 603.09,724.66 599.96,722.98 C598.47,722.18 597.60,722.40 596.02,723.98 C594.91,725.09 592.75,726.00 591.22,726.00 C589.69,726.00 587.40,726.73 586.12,727.63 C584.83,728.53 581.86,729.32 579.50,729.38 C577.14,729.45 575.38,729.79 575.59,730.14 C576.28,731.27 569.06,734.12 564.41,734.56 C561.93,734.79 559.14,735.39 558.20,735.89 C557.26,736.40 554.92,736.96 553.00,737.15 C550.88,737.36 548.39,738.58 546.67,740.25 C545.12,741.76 542.64,743.08 541.17,743.18 C539.70,743.29 537.60,743.43 536.50,743.51 C529.78,743.98 524.22,745.44 522.30,747.21 C520.44,748.94 519.28,749.16 514.80,748.63 C492.80,746.02 491.39,745.72 485.31,742.33 C483.00,741.05 479.78,740.00 478.14,740.00 C474.35,740.00 471.85,739.05 472.57,737.88 C472.88,737.38 471.72,736.69 469.99,736.35 C467.68,735.89 467.19,735.47 468.17,734.79 C468.54,734.54 468.72,734.37 468.71,734.28 C496.36,742.82 497.44,742.93 505.41,743.89 C520.90,745.76 525.75,744.72 580.00,727.93 C719.46,684.76 719.48,684.75 725.71,680.53 C728.58,678.59 731.21,677.00 731.55,677.00 C731.90,677.00 732.02,683.64 731.82,691.75 C731.51,704.54 731.17,707.05 729.29,710.59 C726.98,714.94 721.77,720.03 717.21,722.39 C715.69,723.18 691.28,731.10 662.97,740.00 C634.66,748.89 598.05,760.44 581.61,765.65 C565.17,770.86 546.32,776.68 539.72,778.58 C521.80,783.74 507.11,784.04 491.48,779.56 C488.19,778.62 446.58,765.71 399.00,750.87 C303.62,721.11 304.67,721.52 298.54,711.58 C295.55,706.75 295.49,706.39 295.16,691.33 C294.97,682.90 295.08,676.00 295.39,676.00 C295.70,676.00 298.23,677.72 301.02,679.83 C304.53,682.49 309.48,684.74 317.29,687.24 C331.44,691.77 355.77,699.41 367.50,703.02 C372.45,704.54 383.25,707.91 391.50,710.50 C393.44,711.10 395.41,711.72 397.33,712.32 C397.05,712.31 396.56,712.39 395.87,712.55 C394.42,712.88 391.49,712.65 389.37,712.02 C381.33,709.67 375.40,708.32 372.50,708.18 C370.85,708.10 366.80,706.74 363.50,705.15 C356.57,701.81 351.23,700.00 348.30,700.00 C347.17,700.00 345.68,699.33 345.00,698.50 C344.19,697.52 341.96,697.00 338.58,697.00 C334.63,697.00 332.40,696.35 329.19,694.27 C325.65,691.97 325.25,691.41 326.74,690.77 C328.21,690.13 325.58,690.33 318.72,691.37 C318.05,691.47 317.05,691.80 316.50,692.09 C315.58,692.59 314.82,692.59 311.28,692.15 C310.61,692.07 310.29,691.41 310.57,690.69 C311.25,688.90 305.03,682.54 302.39,682.32 C301.04,682.21 299.78,683.03 298.96,684.57 C298.25,685.91 297.29,687.00 296.83,687.00 C296.37,687.00 296.00,688.38 296.00,690.06 C296.00,691.74 296.40,692.87 296.90,692.56 C298.26,691.72 299.00,694.58 299.00,700.63 C299.00,706.45 300.48,710.32 303.90,713.41 C305.05,714.45 306.00,716.06 306.00,716.97 C306.00,718.99 311.97,722.00 315.97,722.00 C317.57,722.00 319.12,722.39 319.42,722.86 C319.91,723.66 328.18,726.36 330.50,726.49 C332.69,726.61 336.58,728.37 338.00,729.89 C338.83,730.78 341.27,731.64 343.44,731.82 C345.61,731.99 348.99,732.83 350.94,733.67 C354.90,735.38 362.91,737.60 370.50,739.10 C377.33,740.44 381.19,742.07 380.68,743.39 C380.41,744.09 381.78,744.51 384.38,744.52 C390.57,744.55 396.25,745.68 401.13,747.86 C409.80,751.73 413.58,752.98 418.48,753.60 C424.71,754.38 426.84,755.23 430.00,758.17 C431.38,759.45 433.62,760.58 435.00,760.68 C446.11,761.47 454.94,763.54 462.50,767.11 C464.70,768.15 467.27,769.00 468.20,769.00 C469.14,769.00 470.94,769.40 472.20,769.90 C473.47,770.39 476.52,771.37 479.00,772.08 C481.48,772.79 484.79,774.26 486.37,775.34 C488.43,776.75 490.69,777.25 494.48,777.13 C497.90,777.02 500.12,777.44 500.87,778.34 C502.39,780.17 527.73,780.06 528.86,778.22 ZM 399.57 295.78 C398.58,295.23 396.93,293.93 395.90,292.90 C394.42,291.42 393.14,291.16 389.65,291.63 C385.61,292.19 383.75,291.39 383.47,289.00 C383.12,286.04 380.59,277.87 379.90,277.44 C379.40,277.13 379.27,275.77 379.61,274.43 C379.95,273.08 379.70,271.35 379.07,270.58 C377.51,268.70 378.75,264.20 381.19,262.90 C382.27,262.32 383.58,260.62 384.10,259.13 C385.16,256.10 391.64,251.46 396.22,250.45 C398.10,250.04 400.37,250.36 402.35,251.32 C404.08,252.16 406.98,253.40 408.80,254.07 C411.39,255.02 415.44,259.75 414.96,261.24 C414.47,262.73 416.85,264.96 420.05,266.02 C424.84,267.60 425.08,269.49 420.97,273.37 C418.69,275.52 418.11,276.76 418.62,278.36 C419.89,282.35 419.58,283.50 417.25,283.42 C416.02,283.38 415.23,283.57 415.51,283.84 C416.20,284.53 412.93,288.00 411.59,288.00 C410.98,288.00 409.93,289.27 409.24,290.82 C407.67,294.37 402.13,297.21 399.57,295.78 ZM 329.34 291.01 C326.79,289.88 324.91,288.26 324.47,286.83 C324.08,285.55 323.04,283.68 322.16,282.67 C321.27,281.67 320.49,278.97 320.42,276.67 C320.34,274.38 319.94,271.25 319.53,269.73 C318.40,265.58 320.48,261.59 324.54,260.12 C328.38,258.73 330.00,256.62 330.00,253.00 C330.00,251.43 335.62,251.83 337.00,253.50 C338.69,255.54 341.32,255.38 345.23,253.00 C350.18,249.99 352.00,250.35 352.00,254.35 C352.00,258.52 354.59,261.00 358.95,261.00 C362.06,261.00 362.19,261.15 361.44,263.75 C361.01,265.26 360.62,270.33 360.58,275.00 C360.50,283.12 360.40,283.51 358.17,283.83 C356.61,284.05 355.35,285.30 354.41,287.56 C352.89,291.19 349.89,292.59 345.46,291.75 C344.08,291.48 342.71,291.66 342.42,292.13 C341.50,293.62 333.70,292.95 329.34,291.01 ZM 460.32 294.35 C461.47,293.20 455.88,290.99 453.39,291.62 C452.07,291.95 449.42,291.93 447.50,291.57 C444.37,290.98 443.94,290.51 443.38,286.99 C442.97,284.42 441.94,282.53 440.38,281.51 C437.91,279.89 437.02,274.73 439.00,273.50 C439.55,273.16 440.00,271.61 440.00,270.07 C440.00,263.91 441.36,260.73 445.78,256.49 C448.26,254.12 451.28,251.99 452.50,251.75 C454.72,251.33 458.46,253.21 457.43,254.23 C457.14,254.53 458.50,254.96 460.45,255.18 C462.40,255.41 464.00,255.29 464.00,254.92 C464.00,253.31 469.17,253.42 471.91,255.09 C475.60,257.34 477.00,259.88 477.00,264.35 C477.00,266.27 477.53,268.01 478.18,268.23 C479.51,268.67 481.00,279.16 480.28,283.09 C479.88,285.33 479.36,285.65 476.45,285.46 C474.54,285.33 473.17,285.68 473.29,286.27 C473.55,287.56 463.21,295.00 461.16,295.00 C460.34,295.00 459.96,294.71 460.32,294.35 ZM 474.05 629.53 C472.61,629.16 470.67,629.02 468.00,629.01 C460.02,628.99 445.49,623.84 447.56,621.77 C447.81,621.52 445.77,621.43 443.01,621.57 C438.73,621.79 437.73,621.47 436.09,619.39 C434.35,617.17 433.80,617.04 430.02,617.89 C425.03,619.01 420.62,617.93 417.26,614.77 C415.93,613.52 414.64,612.65 414.40,612.84 C413.65,613.42 406.00,611.86 406.00,611.12 C406.00,610.74 404.69,610.33 403.09,610.20 C401.49,610.08 398.23,609.10 395.84,608.01 C393.45,606.93 390.15,606.02 388.50,606.00 C386.85,605.98 383.49,605.04 381.02,603.93 C377.52,602.34 376.87,601.69 378.02,600.95 C379.04,600.30 378.52,600.19 376.33,600.61 C374.39,600.98 371.10,600.51 367.83,599.40 C364.90,598.41 362.00,597.69 361.38,597.81 C360.76,597.93 357.84,596.90 354.88,595.52 C351.92,594.15 350.14,593.02 350.92,593.01 C351.70,593.00 352.06,592.73 351.73,592.40 C351.40,592.07 350.55,592.16 349.84,592.60 C348.09,593.68 340.81,593.08 339.16,591.71 C338.42,591.10 335.75,590.49 333.22,590.34 C329.80,590.14 328.02,589.42 326.27,587.54 C324.98,586.14 324.46,585.00 325.13,585.00 C325.79,585.00 326.12,584.78 325.85,584.52 C325.58,584.25 323.82,584.49 321.93,585.04 C320.05,585.60 316.77,585.77 314.66,585.42 C311.59,584.92 310.62,584.22 309.82,581.90 C308.95,579.42 308.43,579.10 306.15,579.64 C302.62,580.49 300.00,581.88 300.00,582.91 C300.00,583.38 299.22,585.50 298.26,587.63 C296.44,591.66 295.78,603.24 297.42,602.23 C297.93,601.93 298.05,602.42 297.71,603.32 C297.36,604.23 297.39,604.89 297.79,604.78 C298.18,604.67 299.86,604.87 301.52,605.22 C303.92,605.73 304.91,606.78 306.42,610.45 C308.44,615.34 309.37,615.82 316.58,615.77 C319.17,615.75 323.14,616.92 327.44,618.97 C331.65,620.98 336.06,622.30 339.06,622.44 C342.25,622.59 345.19,623.52 347.70,625.17 C349.99,626.68 353.68,627.93 357.00,628.31 C360.06,628.66 365.12,630.29 368.39,631.97 C372.43,634.05 375.73,635.00 378.88,635.00 C381.65,635.00 385.46,635.95 388.49,637.38 C396.79,641.33 401.27,642.91 405.95,643.55 C408.40,643.88 411.55,644.73 412.95,645.44 C414.35,646.14 416.85,647.05 418.50,647.45 C423.40,648.65 423.94,648.82 438.00,653.57 C448.25,657.04 452.70,658.07 456.50,657.87 C460.25,657.66 462.37,658.14 465.00,659.79 C466.92,661.00 468.79,661.99 469.14,662.00 C469.49,662.00 470.07,663.12 470.41,664.50 C471.09,667.21 471.55,667.33 480.50,667.16 C486.32,667.06 493.35,668.93 497.47,671.68 C498.56,672.41 500.27,673.00 501.28,673.00 C502.42,673.00 502.84,673.44 502.40,674.15 C501.97,674.85 502.13,675.04 502.79,674.63 C504.65,673.48 520.41,673.73 520.81,674.92 C520.85,675.06 520.90,675.18 520.95,675.28 C512.84,675.97 504.53,675.92 499.50,674.91 C496.75,674.36 480.10,669.46 462.50,664.03 C422.35,651.64 379.92,638.72 342.50,627.47 C306.42,616.63 303.59,615.26 298.20,606.09 C295.65,601.76 295.48,600.66 295.16,586.75 C294.97,578.64 295.13,572.00 295.51,572.00 C295.89,572.00 298.77,573.59 301.92,575.53 C306.16,578.15 315.37,581.38 337.57,588.05 C373.52,598.84 422.91,613.84 451.00,622.50 C459.83,625.22 467.42,627.56 474.05,629.53 ZM 395.68 291.01 C402.16,293.03 411.50,289.23 415.71,282.86 C417.78,279.73 418.43,277.53 418.42,273.63 C418.41,261.32 407.70,253.03 395.70,256.05 C387.88,258.02 381.97,265.78 382.03,274.00 C382.07,280.55 388.73,288.85 395.68,291.01 ZM 335.00 290.41 C339.21,292.23 340.40,292.29 345.22,290.96 C352.71,288.87 358.93,280.79 358.98,273.07 C359.05,261.78 347.32,252.95 336.20,255.94 C327.93,258.17 323.00,264.73 323.00,273.52 C323.00,280.81 327.51,287.16 335.00,290.41 ZM 453.49 290.14 C458.19,292.27 459.22,292.34 464.32,290.93 C469.28,289.55 475.58,283.82 477.06,279.32 C478.83,273.95 477.77,266.70 474.60,262.54 C463.08,247.44 439.61,257.58 442.44,276.44 C443.28,282.05 447.67,287.49 453.49,290.14 ZM 525.24 671.97 C527.01,669.40 528.60,668.13 529.74,668.34 C530.71,668.53 533.21,669.03 535.31,669.46 C538.52,670.12 539.49,669.89 541.51,667.99 C544.16,665.50 551.56,664.67 552.82,666.71 C553.30,667.49 554.06,667.58 555.03,666.96 C555.84,666.45 556.14,666.02 555.71,666.02 C555.27,666.01 555.95,664.93 557.21,663.62 C558.47,662.32 562.20,660.46 565.50,659.49 C568.80,658.53 573.46,657.11 575.86,656.34 C578.25,655.58 581.73,655.05 583.58,655.18 C585.78,655.33 587.73,654.71 589.22,653.39 C591.56,651.31 598.08,649.39 606.00,648.44 C608.47,648.14 612.86,646.74 615.74,645.33 C618.63,643.92 623.02,642.63 625.49,642.46 C627.97,642.28 630.71,641.43 631.58,640.57 C634.30,637.85 636.88,636.91 641.01,637.16 C643.21,637.29 645.55,636.85 646.20,636.20 C646.86,635.54 648.32,634.99 649.45,634.97 C650.58,634.95 653.30,633.83 655.50,632.47 C658.29,630.75 660.95,630.01 664.32,630.01 C666.96,630.00 670.11,629.45 671.32,628.78 C674.92,626.77 680.34,625.03 683.07,625.02 C686.84,624.99 696.00,622.09 696.00,620.91 C696.00,620.35 697.58,619.24 699.51,618.43 C702.64,617.12 703.36,617.14 706.11,618.55 C707.80,619.43 709.44,619.89 709.76,619.57 C710.08,619.26 709.70,618.99 708.92,618.97 C707.94,618.95 708.06,618.61 709.32,617.88 C710.32,617.30 712.12,617.06 713.32,617.35 C714.52,617.64 716.62,617.20 718.00,616.37 C719.38,615.54 719.71,615.10 718.75,615.40 C717.11,615.90 717.10,615.70 718.54,612.25 C719.38,610.23 721.63,607.14 723.54,605.40 C726.78,602.44 727.00,601.83 727.00,596.02 C727.00,592.39 727.67,588.40 728.60,586.43 C730.04,583.40 730.05,582.90 728.67,581.52 C727.39,580.24 726.01,580.15 720.39,580.94 C716.68,581.47 713.16,581.62 712.57,581.29 L 712.55 581.27 C724.33,577.47 724.57,576.81 727.63,574.47 C729.41,573.11 731.12,572.00 731.43,572.00 C731.74,572.00 732.00,578.21 732.00,585.80 C732.00,598.63 731.82,599.97 729.42,604.78 C726.67,610.29 722.97,613.96 717.12,616.94 C715.58,617.72 706.57,620.74 695.31,624.27 C695.38,624.19 695.44,624.09 695.50,624.00 C695.84,623.45 695.64,623.00 695.06,623.00 C694.48,623.00 694.00,623.45 694.00,624.00 C694.00,624.25 694.04,624.48 694.11,624.65 C691.18,625.57 688.11,626.52 685.00,627.46 C669.33,632.24 652.45,637.43 647.50,639.00 C642.55,640.57 626.35,645.53 611.50,650.02 C596.65,654.51 575.95,660.83 565.50,664.05 C555.05,667.27 542.45,671.09 537.50,672.54 C533.56,673.68 528.30,674.57 522.82,675.11 C523.43,674.48 524.21,673.45 525.24,671.97 ZM 329.26 638.37 C329.03,638.40 328.69,638.47 328.25,638.58 C326.86,638.92 326.00,638.68 326.00,637.94 C326.00,637.06 324.15,636.92 318.99,637.43 C312.77,638.04 311.91,637.92 311.32,636.31 C310.95,635.32 310.16,634.17 309.57,633.77 C308.89,633.30 309.05,633.01 310.00,632.98 C312.08,632.90 305.20,630.00 302.94,630.00 C299.62,630.00 296.00,634.37 296.00,638.36 C296.00,640.36 296.40,642.00 296.88,642.00 C298.41,642.00 300.03,647.34 299.84,651.80 C299.66,656.37 301.62,659.47 304.72,659.49 C306.51,659.50 310.03,664.73 310.25,667.73 C310.33,668.74 311.09,669.61 311.95,669.66 C318.14,670.00 326.06,671.44 329.00,672.75 C333.37,674.71 332.76,674.52 337.50,675.39 C339.70,675.79 342.40,676.30 343.50,676.53 C344.60,676.77 346.94,678.31 348.69,679.97 C351.45,682.58 352.25,682.86 354.51,682.00 C359.90,679.95 367.98,681.50 373.00,685.54 C373.83,686.21 376.80,686.96 379.62,687.22 C382.74,687.50 385.99,688.57 387.94,689.96 C389.75,691.25 393.61,692.58 396.82,693.03 C405.12,694.20 409.43,695.48 413.50,698.00 C416.71,699.98 418.64,700.46 425.17,700.89 C426.09,700.95 428.12,702.07 429.67,703.37 C431.23,704.67 434.08,705.98 436.00,706.28 C437.92,706.59 441.52,707.37 444.00,708.02 C446.48,708.68 450.38,709.67 452.68,710.22 C454.98,710.77 457.79,712.09 458.93,713.15 C460.07,714.21 461.00,714.86 461.00,714.59 C461.00,714.33 463.55,714.98 466.66,716.05 C469.77,717.12 473.28,718.00 474.46,718.00 C475.64,718.00 477.06,718.46 477.62,719.02 C478.65,720.05 481.04,720.72 486.36,721.48 C487.93,721.70 490.07,722.66 491.12,723.61 C492.70,725.03 493.61,725.15 496.47,724.27 C499.36,723.38 500.62,723.55 504.21,725.31 C506.57,726.46 508.65,727.76 508.83,728.20 C508.92,728.40 509.09,728.56 509.33,728.68 C503.65,728.64 499.76,728.26 496.78,727.51 C493.64,726.71 468.66,719.10 441.28,710.60 C413.90,702.09 373.74,689.69 352.04,683.04 C330.34,676.39 310.72,669.85 308.43,668.51 C303.04,665.35 298.66,660.30 296.59,654.86 C295.27,651.40 294.99,647.65 295.22,636.73 L 295.50 622.96 L 300.73 626.89 C305.17,630.22 309.61,632.22 329.26,638.37 ZM 513.50 728.00 C513.84,727.45 515.52,727.00 517.23,727.00 C518.94,727.00 521.05,726.36 521.92,725.58 C522.79,724.80 527.33,723.64 532.00,723.01 C536.67,722.37 540.93,721.44 541.45,720.93 C541.97,720.42 543.06,720.00 543.87,720.00 C544.68,720.00 548.11,718.89 551.48,717.54 C554.86,716.19 560.07,714.66 563.06,714.13 C569.38,713.01 575.08,711.01 577.39,709.09 C578.29,708.35 581.97,707.43 585.58,707.06 C589.19,706.69 592.45,705.96 592.83,705.44 C593.21,704.92 594.65,703.50 596.04,702.28 C598.28,700.31 598.85,700.21 601.09,701.37 C603.37,702.56 603.93,702.42 606.89,699.95 C609.57,697.71 610.86,697.31 613.95,697.72 C616.49,698.06 618.55,697.69 620.25,696.57 C622.50,695.10 626.45,694.08 636.50,692.40 C642.98,691.31 644.00,690.91 644.00,689.46 C644.00,687.60 647.98,686.00 652.61,686.00 C654.64,686.00 657.34,685.07 659.12,683.75 C661.71,681.84 663.43,681.50 670.49,681.50 C675.06,681.50 678.61,681.18 678.37,680.79 C678.13,680.41 678.96,679.44 680.22,678.65 C683.76,676.42 700.51,670.00 702.79,670.00 C705.84,670.00 708.07,671.08 707.37,672.21 C707.09,672.67 707.54,672.78 708.30,672.66 C702.78,674.52 688.14,679.15 672.00,684.14 C652.47,690.18 612.42,702.57 583.00,711.69 L 529.50 728.27 L 516.00 728.61 C514.80,728.64 513.66,728.66 512.57,728.68 C512.99,728.51 513.32,728.29 513.50,728.00 ZM 716.82 670.08 C717.71,669.26 718.40,667.56 718.59,665.36 C718.81,662.85 719.66,660.98 721.02,660.00 C728.39,654.74 728.60,654.42 727.12,650.84 C724.48,644.42 724.56,641.58 727.42,640.05 C730.64,638.32 730.66,637.01 727.55,633.65 C724.58,630.45 722.55,630.30 720.24,633.12 C719.28,634.28 716.72,636.05 714.55,637.05 C711.15,638.61 710.17,638.68 707.52,637.57 C703.72,635.99 701.16,636.87 698.31,640.76 C696.20,643.65 695.84,643.76 688.02,643.79 C680.58,643.82 679.76,644.03 677.95,646.34 C675.78,649.09 669.80,651.52 667.42,650.61 C666.60,650.29 661.38,651.60 655.81,653.52 C650.24,655.43 644.35,657.00 642.71,657.00 C640.80,657.00 638.88,657.92 637.37,659.55 C635.33,661.75 634.50,661.99 631.25,661.37 C625.79,660.32 624.12,660.63 622.15,663.06 C620.76,664.78 619.08,665.31 614.05,665.61 C609.09,665.90 607.39,666.42 606.29,667.99 C605.40,669.27 603.73,670.01 601.69,670.04 C599.94,670.05 597.38,670.71 596.00,671.50 C594.62,672.29 592.15,672.95 590.50,672.97 C588.85,672.99 585.95,673.95 584.06,675.10 C582.17,676.26 576.77,678.21 572.06,679.43 C567.35,680.66 562.50,682.20 561.28,682.85 C560.06,683.50 556.91,683.97 554.28,683.88 C552.60,683.83 550.43,684.07 548.54,684.48 C552.39,683.18 558.44,681.24 562.00,680.15 C634.87,658.03 717.42,632.29 720.50,630.73 C722.70,629.62 725.89,627.65 727.59,626.36 C729.30,625.06 730.98,624.00 731.34,624.00 C731.70,624.00 732.00,630.19 731.99,637.75 C731.98,650.07 731.74,652.03 729.63,656.54 C727.50,661.11 719.60,669.41 716.82,670.08 ZM 656.50 598.36 C656.38,598.48 656.24,598.65 656.10,598.88 C655.62,599.64 654.71,599.94 654.09,599.55 C653.46,599.17 653.07,599.37 653.23,600.01 C653.82,602.54 648.13,605.41 642.29,605.53 C638.92,605.59 636.46,606.12 636.23,606.82 C636.01,607.47 634.28,608.00 632.38,608.00 C630.47,608.00 627.69,608.91 626.18,610.03 C624.67,611.14 621.27,612.32 618.61,612.64 C615.96,612.97 611.93,614.30 609.65,615.61 C607.03,617.10 603.88,617.98 601.12,617.99 C598.36,618.00 595.41,618.82 593.16,620.21 C590.51,621.85 587.98,622.43 583.39,622.46 C579.98,622.48 577.37,622.69 577.59,622.91 C578.49,623.83 569.22,627.18 565.34,627.33 C563.05,627.43 561.37,627.69 561.60,627.92 C562.24,628.57 549.75,633.94 547.50,633.98 C546.40,634.00 544.19,634.70 542.59,635.53 C539.51,637.14 525.39,638.95 515.75,638.98 C512.59,638.99 510.00,639.45 510.00,640.00 C510.00,641.49 505.78,641.15 503.56,639.47 C502.49,638.66 500.47,637.99 499.06,637.98 C496.97,637.97 496.77,637.77 498.00,636.89 C499.21,636.02 499.12,635.94 497.50,636.48 C489.34,639.19 480.04,637.37 477.88,632.64 C477.22,631.20 476.33,630.28 474.75,629.74 C514.14,641.42 519.28,640.05 551.06,630.44 C568.65,625.13 603.43,614.50 613.00,611.52 C615.47,610.75 633.92,605.17 654.00,599.11 ZM 533.93 688.52 C531.69,689.04 530.21,689.55 530.42,689.76 C531.52,690.85 527.81,693.12 525.25,692.91 C523.74,692.79 517.10,692.65 510.50,692.60 C499.92,692.51 498.29,692.27 496.70,690.53 C495.33,689.05 493.76,688.62 490.25,688.77 C482.48,689.11 473.08,685.83 476.20,683.86 C477.32,683.16 470.57,683.27 467.50,684.00 C465.10,684.57 462.95,683.83 460.12,681.45 C458.45,680.04 456.84,678.92 456.54,678.95 C450.58,679.52 445.77,678.76 444.27,677.00 C443.01,675.53 441.32,675.00 437.89,675.00 C434.12,675.00 432.94,674.56 431.71,672.68 C430.25,670.46 426.37,669.18 416.07,667.53 C414.18,667.22 411.85,666.27 410.90,665.41 C409.96,664.55 406.78,663.50 403.84,663.06 C397.83,662.18 389.06,658.50 391.15,657.75 C391.89,657.48 390.39,657.48 387.81,657.75 C379.80,658.60 375.84,657.28 369.96,651.82 C368.87,650.82 367.22,650.35 365.82,650.66 C363.90,651.09 363.76,650.97 365.00,649.99 C365.27,649.78 365.48,649.61 365.62,649.48 C383.21,654.84 410.11,663.06 434.50,670.54 C467.50,680.65 497.88,689.45 502.00,690.09 C511.42,691.55 522.38,690.99 533.93,688.52 ZM 449.25 728.26 C449.02,728.29 448.72,728.37 448.32,728.48 C445.86,729.17 434.00,726.75 426.50,724.03 C421.02,722.04 419.02,721.37 417.50,721.03 C416.95,720.90 414.25,719.95 411.50,718.90 C408.75,717.86 405.67,717.00 404.65,717.00 C403.63,717.00 401.24,716.26 399.33,715.35 C396.77,714.14 396.21,713.47 397.18,712.82 C397.48,712.62 397.62,712.48 397.58,712.39 C403.69,714.29 409.13,715.96 411.00,716.50 C413.40,717.19 430.41,722.42 449.25,728.26 ZM 712.15 581.40 C712.16,581.41 712.17,581.42 712.18,581.43 C713.22,582.60 702.05,588.06 697.75,588.49 C694.03,588.86 687.54,590.64 685.50,591.86 C684.95,592.18 683.38,592.60 682.00,592.79 C680.63,592.98 679.14,593.78 678.70,594.57 C677.82,596.14 671.46,596.55 670.56,595.09 C670.31,594.69 669.89,594.49 669.40,594.47 C691.36,587.84 704.26,583.94 712.15,581.40 ZM 365.19 649.35 C365.00,649.41 364.77,649.50 364.50,649.61 C359.67,651.55 347.99,649.69 347.26,646.87 C346.99,645.84 346.34,645.00 345.82,645.00 C345.31,645.00 345.13,644.60 345.43,644.11 C345.62,643.81 345.53,643.52 345.26,643.29 C347.09,643.84 349.00,644.42 351.00,645.03 C354.29,646.03 359.18,647.51 365.19,649.35 ZM 468.51 734.22 C468.29,734.23 467.91,734.31 467.35,734.47 C461.73,736.04 445.89,731.08 449.19,728.78 C449.44,728.61 449.59,728.48 449.66,728.39 L 451.00 728.80 C457.80,730.91 463.57,732.70 468.51,734.22 ZM 199.71 806.38 C199.37,806.04 199.74,805.11 200.53,804.32 C201.79,803.07 201.69,802.50 199.80,799.94 C197.38,796.67 195.53,796.19 194.61,798.58 C193.61,801.19 193.88,801.98 196.65,804.55 C198.89,806.63 201.55,808.22 199.71,806.38 ZM 832.54 205.07 C832.23,204.56 832.36,203.89 832.85,203.59 C833.33,203.29 833.68,202.03 833.61,200.77 C833.49,198.25 829.59,197.01 827.70,198.90 C826.36,200.24 828.57,204.72 830.89,205.34 C831.78,205.57 832.64,205.82 832.81,205.88 C832.98,205.95 832.86,205.58 832.54,205.07 ZM 342.89 642.57 C341.84,642.49 340.70,642.62 339.90,643.05 C338.93,643.57 337.15,644.00 335.96,644.00 C333.21,644.00 327.51,639.39 329.27,638.59 C329.39,638.53 329.47,638.49 329.52,638.45 C333.37,639.65 337.79,641.01 342.89,642.57 ZM 869.08 295.55 C869.58,295.86 870.00,294.74 870.00,293.06 C870.00,291.38 870.53,290.00 871.17,290.00 C871.81,290.00 872.00,289.66 871.58,289.25 C871.17,288.84 869.86,288.49 868.67,288.49 C866.03,288.47 864.88,292.33 866.44,295.94 C867.27,297.87 867.56,298.02 867.82,296.68 C868.00,295.74 868.57,295.23 869.08,295.55 ZM 229.24 830.80 L 231.97 829.77 L 229.42 827.76 C226.92,825.79 226.85,825.79 225.19,827.67 C221.78,831.53 223.59,832.93 229.24,830.80 ZM 845.54 218.55 C845.45,215.02 844.19,213.86 841.95,215.26 C839.74,216.64 839.48,218.08 841.13,219.73 C842.94,221.54 845.59,220.83 845.54,218.55 ZM 249.82 160.13 C250.89,159.45 250.83,158.97 249.50,157.65 C247.47,155.61 244.00,155.49 244.00,157.45 C244.00,158.25 244.79,159.36 245.75,159.92 C247.89,161.17 248.16,161.18 249.82,160.13 ZM 667.45 595.05 C666.52,595.60 665.64,596.50 665.14,597.59 C664.24,599.56 663.40,599.96 660.52,599.75 C658.59,599.61 657.00,599.05 656.99,598.50 C656.98,598.37 656.96,598.28 656.92,598.23 C660.64,597.11 664.15,596.05 667.45,595.05 ZM 159.06 290.54 C159.60,290.87 159.63,290.17 159.12,288.80 C157.92,285.56 155.57,285.92 155.17,289.39 C154.79,292.75 157.30,295.19 157.82,291.96 C158.00,290.87 158.55,290.22 159.06,290.54 ZM 767.06 851.47 C769.49,850.21 769.79,849.69 768.76,848.58 C767.70,847.44 767.02,847.47 764.50,848.81 C761.97,850.15 761.80,850.46 763.40,850.80 C764.91,851.12 765.01,851.38 763.90,852.09 C761.57,853.56 763.90,853.10 767.06,851.47 ZM 725.84 865.12 C727.69,863.95 727.49,862.70 725.32,861.93 C723.28,861.20 721.92,862.62 722.70,864.66 C723.29,866.21 723.97,866.31 725.84,865.12 ZM 179.20 772.80 C178.62,772.22 177.41,772.01 176.52,772.35 C175.24,772.85 175.13,773.38 176.00,775.01 C177.00,776.87 177.23,776.91 178.68,775.46 C179.81,774.33 179.96,773.56 179.20,772.80 ZM 718.25 641.34 C717.56,641.06 717.00,640.21 717.00,639.45 C717.00,637.79 721.17,639.00 721.78,640.85 C722.17,642.02 720.51,642.25 718.25,641.34 ZM 717.21 139.18 C718.38,138.72 718.65,138.05 718.06,137.10 C717.51,136.20 716.54,135.98 715.35,136.47 C713.98,137.04 713.85,137.36 714.86,137.74 C716.01,138.16 716.01,138.38 714.86,139.11 C713.27,140.12 714.74,140.16 717.21,139.18 ZM 844.00 782.61 C844.00,780.63 841.28,779.83 840.59,781.62 C840.28,782.43 840.44,782.85 840.94,782.54 C841.45,782.22 842.14,782.42 842.49,782.98 C843.37,784.41 844.00,784.25 844.00,782.61 ZM 366.00 274.50 C366.00,273.58 366.48,272.99 367.08,273.19 C367.67,273.39 368.15,273.98 368.15,274.50 C368.15,275.02 367.67,275.61 367.08,275.81 C366.48,276.01 366.00,275.42 366.00,274.50 ZM 311.00 711.44 C311.00,710.58 311.45,710.16 312.00,710.50 C312.55,710.84 313.00,711.54 313.00,712.06 C313.00,712.58 312.55,713.00 312.00,713.00 C311.45,713.00 311.00,712.30 311.00,711.44 ZM 248.52 847.74 C248.56,847.72 248.61,847.70 248.66,847.67 C249.31,847.29 249.98,847.34 250.16,847.77 C250.33,848.16 251.78,849.30 253.48,850.41 C251.94,849.61 250.41,848.79 248.89,847.95 C248.77,847.88 248.64,847.81 248.52,847.74 ZM 712.05 671.25 C712.29,671.10 712.51,670.95 712.71,670.79 C713.37,670.26 714.29,670.06 714.75,670.35 C713.96,670.55 713.16,670.80 712.05,671.25 ZM 544.68 685.73 C542.40,686.54 538.79,687.53 535.97,688.09 C535.75,688.13 535.54,688.17 535.33,688.22 C538.41,687.52 541.54,686.69 544.68,685.73 ZM 785.04 158.34 C784.94,158.22 784.86,158.08 784.81,157.94 C784.79,157.88 784.77,157.82 784.74,157.77 C784.91,157.92 785.00,158.04 785.00,158.12 C785.00,158.20 785.01,158.27 785.04,158.34 Z" fill="rgb(6,23,58)"/>
<path d="M 0.00 0.00 L 1024.00 0.00 L 1024.00 1024.00 L 0.00 1024.00 ZM 789.33 160.26 C788.39,159.57 787.07,159.00 786.39,159.00 C785.88,159.00 785.35,158.73 785.04,158.34 C785.01,158.27 785.00,158.20 785.00,158.12 C785.00,158.04 784.91,157.92 784.74,157.77 C784.61,157.52 784.40,157.37 784.15,157.31 C781.78,155.68 774.81,152.18 767.89,149.04 C767.37,148.72 766.76,148.39 766.04,148.02 C764.31,147.14 762.83,146.56 761.64,146.30 C759.11,145.24 756.80,144.33 755.00,143.72 C740.30,138.74 733.08,136.91 719.38,134.72 L 705.50 132.50 L 519.00 132.50 L 506.93 132.50 C418.77,132.50 372.91,132.50 346.44,133.03 C346.16,132.92 345.85,132.82 345.53,132.76 C344.22,132.51 343.37,132.66 343.56,133.09 C323.49,133.55 315.32,134.36 307.26,135.81 C304.35,136.33 301.45,136.93 298.00,137.63 C287.71,139.72 277.94,142.42 268.67,145.74 C268.09,145.81 267.38,145.99 266.50,146.26 C264.84,146.77 263.83,147.20 263.39,147.71 C240.00,156.87 219.91,170.15 202.94,187.65 C173.21,218.29 156.50,255.39 153.04,298.40 C152.87,300.48 152.72,307.41 152.59,318.06 C152.10,326.68 152.00,347.65 152.00,398.11 C152.00,410.98 152.01,422.01 152.03,431.44 C151.96,471.53 151.95,515.68 152.02,556.45 C152.00,565.44 152.00,575.73 152.00,587.50 C152.00,637.57 152.11,661.52 152.50,672.20 C152.65,687.78 152.83,698.00 153.04,700.60 C153.83,710.46 155.33,720.05 157.51,729.35 C157.50,730.81 158.03,732.79 159.12,735.75 L 159.15 735.82 C160.46,740.64 161.96,745.38 163.65,750.03 C163.68,750.47 163.85,751.13 164.14,751.97 C164.45,752.87 164.78,753.56 165.15,754.05 C166.21,756.75 167.32,759.42 168.50,762.06 C168.66,762.58 168.87,763.18 169.11,763.89 C169.74,765.70 170.05,766.43 170.49,766.36 C174.04,773.77 178.10,780.91 182.64,787.74 C182.73,788.11 182.94,788.53 183.26,789.05 C183.66,789.69 184.08,790.17 184.50,790.48 C190.96,799.82 198.34,808.57 206.61,816.66 C206.68,817.02 206.98,817.43 207.52,818.02 C207.92,818.46 208.48,818.81 209.12,819.07 C220.61,829.90 233.73,839.49 248.34,847.64 C248.30,847.77 248.36,847.81 248.52,847.74 C248.64,847.81 248.77,847.88 248.89,847.95 C250.41,848.79 251.94,849.61 253.48,850.41 C253.65,850.52 253.82,850.62 254.00,850.73 C255.50,851.67 256.45,852.17 257.24,852.29 C264.38,855.76 271.83,858.79 279.56,861.37 C281.16,862.38 283.68,863.25 287.04,863.90 C287.09,863.91 287.15,863.86 287.20,863.75 C300.07,867.47 313.68,870.01 328.00,871.35 C329.92,871.53 413.71,871.75 514.20,871.84 C671.08,871.98 698.49,871.79 708.20,870.51 C722.03,868.68 735.39,865.50 748.20,860.98 C748.59,861.06 748.83,860.99 748.84,860.76 C759.36,857.01 769.52,852.36 779.28,846.82 C779.78,846.76 780.23,846.45 781.00,845.89 C781.14,845.79 781.26,845.70 781.37,845.62 C784.28,843.92 787.16,842.14 790.00,840.28 C790.82,839.74 791.63,839.20 792.43,838.66 C792.54,838.63 792.59,838.59 792.59,838.55 C838.39,807.47 866.72,759.50 872.01,703.94 C872.77,695.99 873.01,631.28 872.79,492.00 L 872.47 291.50 L 870.26 280.43 C869.18,275.07 867.97,269.90 866.61,264.90 C866.53,264.36 866.39,263.85 866.21,263.42 C864.81,258.43 863.27,253.61 861.56,248.94 C861.89,248.85 862.01,248.68 861.83,248.50 C861.76,248.42 861.59,248.39 861.36,248.38 C859.87,244.34 858.25,240.40 856.50,236.56 C856.52,236.20 856.35,235.65 856.00,235.00 C855.79,234.61 855.56,234.28 855.32,234.01 C847.36,217.25 836.84,202.25 823.06,187.68 C818.58,182.95 810.98,176.37 803.79,170.71 C803.91,170.43 803.47,170.08 802.50,169.37 C801.95,168.97 801.41,168.67 800.89,168.45 C796.69,165.23 792.81,162.48 790.03,160.79 C789.84,160.63 789.61,160.46 789.33,160.26 ZM 860.43 266.85 C860.64,267.64 860.84,268.39 861.03,269.11 C861.20,269.85 861.41,270.73 861.68,271.77 C861.99,273.00 862.29,274.05 862.58,274.91 C862.64,275.16 862.71,275.41 862.77,275.65 C866.52,291.08 866.51,307.41 866.50,467.94 L 866.50 467.95 C866.50,477.90 866.50,488.40 866.50,499.50 C866.50,684.27 866.36,701.39 864.79,711.50 C858.77,750.19 843.38,781.86 817.50,808.85 C805.46,821.39 792.08,831.94 777.49,840.42 C777.14,840.55 776.72,840.78 776.18,841.12 C775.99,841.24 775.81,841.36 775.64,841.48 C752.51,854.55 726.43,862.48 698.00,864.97 C684.06,866.20 345.75,866.12 329.77,864.89 C281.60,861.19 240.89,842.29 207.93,808.33 C180.69,780.26 165.11,746.88 159.92,705.50 C158.41,693.50 158.58,306.93 160.10,293.00 C163.19,264.57 172.53,238.82 188.39,215.02 C198.32,200.11 218.70,179.81 233.50,170.08 C234.06,169.71 234.63,169.34 235.19,168.98 C235.24,168.98 235.28,168.99 235.32,168.98 C235.71,168.98 235.84,168.85 235.72,168.64 C259.64,153.39 285.60,144.60 320.50,139.89 C332.57,138.26 677.52,137.38 699.00,138.92 C723.66,140.70 739.87,144.22 759.00,151.96 C780.43,160.63 799.11,173.09 816.00,189.99 C837.82,211.83 852.61,237.41 860.43,266.85 ZM 502.14 326.50 L 506.34 316.98 C507.09,316.95 507.18,316.83 506.59,316.41 L 507.76 313.75 C510.85,306.74 513.68,301.00 514.06,301.00 C514.43,301.00 517.36,306.84 520.57,313.98 L 526.40 326.96 L 618.95 327.23 L 711.50 327.50 L 715.88 329.83 C720.72,332.42 724.35,335.94 726.85,340.50 C728.34,343.22 728.55,353.23 729.00,445.99 L 729.50 548.48 L 741.00 552.65 C747.33,554.94 752.85,556.49 753.27,556.09 C753.69,555.69 753.92,492.39 753.76,415.43 C753.50,284.44 753.37,275.12 751.70,269.50 C743.42,241.70 720.51,221.63 692.95,218.02 C686.97,217.24 632.65,217.00 507.50,217.22 C491.54,217.25 476.99,217.27 463.70,217.29 C337.34,217.46 325.89,217.48 316.49,221.88 C314.56,222.78 312.72,223.86 310.00,225.17 C302.94,228.56 299.97,230.79 292.48,238.37 C285.32,245.62 282.58,249.25 279.23,256.00 C277.84,258.80 276.69,260.76 275.76,262.81 C271.50,272.14 271.48,283.41 271.30,385.14 C271.28,394.83 271.26,405.34 271.24,416.75 C271.08,493.89 271.24,557.00 271.61,557.00 C271.97,557.00 276.82,555.37 282.38,553.38 C287.95,551.39 293.29,549.35 294.25,548.85 C295.90,547.98 296.00,542.19 296.00,448.65 L 296.00 442.07 C296.00,351.83 296.00,343.52 299.95,338.09 C300.45,337.41 301.00,336.77 301.63,336.03 C303.05,334.34 306.30,331.73 308.86,330.23 L 313.50 327.50 L 407.82 327.00 ZM 449.25 728.26 C430.41,722.42 413.40,717.19 411.00,716.50 C409.13,715.96 403.69,714.29 397.58,712.39 C397.56,712.34 397.47,712.32 397.33,712.32 C395.41,711.72 393.44,711.10 391.50,710.50 C383.25,707.91 372.45,704.54 367.50,703.02 C355.77,699.41 331.44,691.77 317.29,687.24 C309.48,684.74 304.53,682.49 301.02,679.83 C298.23,677.72 295.70,676.00 295.39,676.00 C295.08,676.00 294.97,682.90 295.16,691.33 C295.49,706.39 295.55,706.75 298.54,711.58 C304.67,721.52 303.62,721.11 399.00,750.87 C446.58,765.71 488.19,778.62 491.48,779.56 C507.11,784.04 521.80,783.74 539.72,778.58 C546.32,776.68 565.17,770.86 581.61,765.65 C598.05,760.44 634.66,748.89 662.97,740.00 C691.28,731.10 715.69,723.18 717.21,722.39 C721.77,720.03 726.98,714.94 729.29,710.59 C731.17,707.05 731.51,704.54 731.82,691.75 C732.02,683.64 731.90,677.00 731.55,677.00 C731.21,677.00 728.58,678.59 725.71,680.53 C719.48,684.75 719.46,684.76 580.00,727.93 C525.75,744.72 520.90,745.76 505.41,743.89 C497.44,742.93 496.36,742.82 468.71,734.28 C468.70,734.24 468.63,734.22 468.51,734.22 C463.57,732.70 457.80,730.91 451.00,728.80 L 449.66 728.39 C449.76,728.24 449.63,728.19 449.25,728.26 ZM 474.05 629.53 C467.42,627.56 459.83,625.22 451.00,622.50 C422.91,613.84 373.52,598.84 337.57,588.05 C315.37,581.38 306.16,578.15 301.92,575.53 C298.77,573.59 295.89,572.00 295.51,572.00 C295.13,572.00 294.97,578.64 295.16,586.75 C295.48,600.66 295.65,601.76 298.20,606.09 C303.59,615.26 306.42,616.63 342.50,627.47 C379.92,638.72 422.35,651.64 462.50,664.03 C480.10,669.46 496.75,674.36 499.50,674.91 C504.53,675.92 512.84,675.97 520.95,675.28 C521.33,676.10 521.86,676.11 522.82,675.11 C528.30,674.57 533.56,673.68 537.50,672.54 C542.45,671.09 555.05,667.27 565.50,664.05 C575.95,660.83 596.65,654.51 611.50,650.02 C626.35,645.53 642.55,640.57 647.50,639.00 C652.45,637.43 669.33,632.24 685.00,627.46 C688.11,626.52 691.18,625.57 694.11,624.65 C694.19,624.86 694.31,625.00 694.44,625.00 C694.64,625.00 695.00,624.69 695.31,624.27 C706.57,620.74 715.58,617.72 717.12,616.94 C722.97,613.96 726.67,610.29 729.42,604.78 C731.82,599.97 732.00,598.63 732.00,585.80 C732.00,578.21 731.74,572.00 731.43,572.00 C731.12,572.00 729.41,573.11 727.63,574.47 C724.57,576.81 724.33,577.47 712.55,581.27 C711.99,580.96 711.82,581.02 712.15,581.40 C704.26,583.94 691.36,587.84 669.40,594.47 C668.82,594.44 668.13,594.66 667.45,595.05 C664.15,596.05 660.64,597.11 656.92,598.23 C656.84,598.13 656.69,598.17 656.50,598.36 L 654.00 599.11 C633.92,605.17 615.47,610.75 613.00,611.52 C603.43,614.50 568.65,625.13 551.06,630.44 C519.28,640.05 514.14,641.42 474.75,629.74 C474.53,629.66 474.30,629.59 474.05,629.53 ZM 329.26 638.37 C309.61,632.22 305.17,630.22 300.73,626.89 L 295.50 622.96 L 295.22 636.73 C294.99,647.65 295.27,651.40 296.59,654.86 C298.66,660.30 303.04,665.35 308.43,668.51 C310.72,669.85 330.34,676.39 352.04,683.04 C373.74,689.69 413.90,702.09 441.28,710.60 C468.66,719.10 493.64,726.71 496.78,727.51 C499.76,728.26 503.65,728.64 509.33,728.68 C510.11,729.09 511.57,729.07 512.57,728.68 C513.66,728.66 514.80,728.64 516.00,728.61 L 529.50 728.27 L 583.00 711.69 C612.42,702.57 652.47,690.18 672.00,684.14 C688.14,679.15 702.78,674.52 708.30,672.66 C709.32,672.51 710.89,671.95 712.05,671.25 C713.16,670.80 713.96,670.55 714.80,670.38 C715.50,670.78 716.21,670.64 716.82,670.08 C719.60,669.41 727.50,661.11 729.63,656.54 C731.74,652.03 731.98,650.07 731.99,637.75 C732.00,630.19 731.70,624.00 731.34,624.00 C730.98,624.00 729.30,625.06 727.59,626.36 C725.89,627.65 722.70,629.62 720.50,630.73 C717.42,632.29 634.87,658.03 562.00,680.15 C558.44,681.24 552.39,683.18 548.54,684.48 C547.47,684.72 546.49,685.00 545.75,685.32 C545.44,685.44 545.08,685.58 544.68,685.73 C541.54,686.69 538.41,687.52 535.33,688.22 C534.84,688.32 534.37,688.42 533.93,688.52 C522.38,690.99 511.42,691.55 502.00,690.09 C497.88,689.45 467.50,680.65 434.50,670.54 C410.11,663.06 383.21,654.84 365.62,649.48 C366.02,649.12 365.90,649.09 365.19,649.35 C359.18,647.51 354.29,646.03 351.00,645.03 C349.00,644.42 347.09,643.84 345.26,643.29 C344.83,642.90 343.90,642.64 342.89,642.57 C337.79,641.01 333.37,639.65 329.52,638.45 C329.66,638.35 329.56,638.33 329.26,638.37 ZM 512.72 606.79 C513.01,607.50 513.70,607.93 514.26,607.75 C514.81,607.56 518.96,598.21 523.48,586.96 C528.00,575.71 537.91,551.20 545.50,532.50 C567.20,479.02 568.98,474.56 568.99,473.49 C569.00,472.46 565.05,462.60 541.53,405.00 C534.01,386.58 524.88,364.18 521.25,355.22 C517.62,346.27 514.27,339.33 513.81,339.79 C513.35,340.25 506.87,355.68 499.42,374.07 C491.98,392.46 479.80,422.40 472.36,440.62 L 458.83 473.74 L 461.81 481.12 C463.45,485.18 468.63,497.95 473.31,509.50 C478.00,521.05 488.67,547.38 497.01,568.00 C505.36,588.62 512.42,606.08 512.72,606.79 ZM 520.25 618.91 C519.79,620.96 519.99,621.22 521.60,620.60 C522.65,620.20 530.03,617.92 538.00,615.54 C545.97,613.17 566.00,607.07 582.50,601.99 C599.00,596.92 617.90,591.13 624.50,589.13 L 636.50 585.49 L 636.76 520.25 C636.90,484.36 636.67,454.99 636.26,454.98 C635.84,454.97 621.97,464.06 605.44,475.18 L 575.38 495.39 L 571.73 503.45 C569.73,507.88 564.86,518.70 560.91,527.50 C556.97,536.30 551.27,548.90 548.26,555.50 C545.25,562.10 539.86,574.03 536.28,582.00 C532.71,589.97 527.76,601.00 525.29,606.50 C522.82,612.00 520.55,617.59 520.25,618.91 ZM 505.86 620.52 C506.49,621.15 507.54,621.13 508.20,620.47 C508.49,620.17 504.25,610.16 498.76,598.22 C493.28,586.27 486.87,572.22 484.53,567.00 C479.80,556.49 455.02,502.09 452.98,497.75 C452.18,496.06 447.05,491.88 439.59,486.83 C432.94,482.33 419.75,473.33 410.28,466.83 C400.82,460.32 392.60,455.00 392.03,455.00 C391.31,455.00 391.07,475.49 391.24,520.21 L 391.50 585.42 L 397.50 587.27 C400.80,588.29 417.67,593.44 435.00,598.70 C452.33,603.97 471.45,609.81 477.50,611.67 C483.55,613.53 492.30,616.18 496.94,617.55 C501.58,618.92 505.59,620.26 505.86,620.52 ZM 395.68 291.01 C388.73,288.85 382.07,280.55 382.03,274.00 C381.97,265.78 387.88,258.02 395.70,256.05 C407.70,253.03 418.41,261.32 418.42,273.63 C418.43,277.53 417.78,279.73 415.71,282.86 C411.50,289.23 402.16,293.03 395.68,291.01 ZM 335.00 290.41 C327.51,287.16 323.00,280.81 323.00,273.52 C323.00,264.73 327.93,258.17 336.20,255.94 C347.32,252.95 359.05,261.78 358.98,273.07 C358.93,280.79 352.71,288.87 345.22,290.96 C340.40,292.29 339.21,292.23 335.00,290.41 ZM 453.49 290.14 C447.67,287.49 443.28,282.05 442.44,276.44 C439.61,257.58 463.08,247.44 474.60,262.54 C477.77,266.70 478.83,273.95 477.06,279.32 C475.58,283.82 469.28,289.55 464.32,290.93 C459.22,292.34 458.19,292.27 453.49,290.14 Z" fill="rgb(252,252,253)"/>
<path d="M 512.72 606.79 C512.42,606.08 505.36,588.62 497.01,568.00 C488.67,547.38 478.00,521.05 473.31,509.50 C468.63,497.95 463.45,485.18 461.81,481.12 L 458.83 473.74 L 472.36 440.62 C479.80,422.40 491.98,392.46 499.42,374.07 C506.87,355.68 513.35,340.25 513.81,339.79 C514.27,339.33 517.62,346.27 521.25,355.22 C524.88,364.18 534.01,386.58 541.53,405.00 C565.05,462.60 569.00,472.46 568.99,473.49 C568.98,474.56 567.20,479.02 545.50,532.50 C537.91,551.20 528.00,575.71 523.48,586.96 C518.96,598.21 514.81,607.56 514.26,607.75 C513.70,607.93 513.01,607.50 512.72,606.79 ZM 520.25 618.91 C520.55,617.59 522.82,612.00 525.29,606.50 C527.76,601.00 532.71,589.97 536.28,582.00 C539.86,574.03 545.25,562.10 548.26,555.50 C551.27,548.90 556.97,536.30 560.91,527.50 C564.86,518.70 569.73,507.88 571.73,503.45 L 575.38 495.39 L 605.44 475.18 C621.97,464.06 635.84,454.97 636.26,454.98 C636.67,454.99 636.90,484.36 636.76,520.25 L 636.50 585.49 L 624.50 589.13 C617.90,591.13 599.00,596.92 582.50,601.99 C566.00,607.07 545.97,613.17 538.00,615.54 C530.03,617.92 522.65,620.20 521.60,620.60 C519.99,621.22 519.79,620.96 520.25,618.91 Z" fill="rgb(251,105,5)"/>
<path d="M 505.86 620.52 C505.59,620.26 501.58,618.92 496.94,617.55 C492.30,616.18 483.55,613.53 477.50,611.67 C471.45,609.81 452.33,603.97 435.00,598.70 C417.67,593.44 400.80,588.29 397.50,587.27 L 391.50 585.42 L 391.24 520.21 C391.07,475.49 391.31,455.00 392.03,455.00 C392.60,455.00 400.82,460.32 410.28,466.83 C419.75,473.33 432.94,482.33 439.59,486.83 C447.05,491.88 452.18,496.06 452.98,497.75 C455.02,502.09 479.80,556.49 484.53,567.00 C486.87,572.22 493.28,586.27 498.76,598.22 C504.25,610.16 508.49,620.17 508.20,620.47 C507.54,621.13 506.49,621.15 505.86,620.52 Z" fill="rgb(252,153,6)"/>
</g>
</svg>